<svg width="30" height="31" viewBox="0 0 30 31" fill="none" xmlns="http://www.w3.org/2000/svg">
<circle cx="15" cy="15.2695" r="15" fill="#FAFAFA"/>
<path d="M23.9543 11.5616C23.9121 10.6052 23.7574 9.94766 23.5358 9.37791C23.3072 8.77313 22.9555 8.23167 22.4947 7.78155C22.0445 7.32443 21.4994 6.96922 20.9015 6.74423C20.3283 6.52268 19.6741 6.36802 18.7175 6.32585C17.7538 6.28011 17.4478 6.26953 15.0035 6.26953C12.5592 6.26953 12.2532 6.28011 11.2931 6.32228C10.3365 6.36444 9.67883 6.51925 9.1091 6.74066C8.50407 6.96922 7.96251 7.32086 7.51231 7.78155C7.0551 8.23167 6.69996 8.7767 6.47479 9.37447C6.2532 9.94766 6.0985 10.6016 6.05633 11.558C6.01058 12.5216 6 12.8275 6 15.2713C6 17.7152 6.01058 18.0211 6.05275 18.981C6.09493 19.9374 6.24976 20.595 6.47136 21.1647C6.69996 21.7695 7.0551 22.311 7.51231 22.7611C7.96251 23.2182 8.50764 23.5734 9.10553 23.7984C9.67883 24.02 10.3329 24.1746 11.2896 24.2168C12.2497 24.2591 12.5558 24.2695 15.0001 24.2695C17.4444 24.2695 17.7503 24.2591 18.7105 24.2168C19.6671 24.1746 20.3247 24.02 20.8945 23.7984C22.1044 23.3307 23.061 22.3743 23.5288 21.1647C23.7502 20.5915 23.9051 19.9374 23.9472 18.981C23.9894 18.0211 24 17.7152 24 15.2713C24 12.8275 23.9964 12.5216 23.9543 11.5616ZM22.333 18.9107C22.2943 19.7898 22.1466 20.2645 22.0235 20.581C21.721 21.3651 21.0985 21.9875 20.3142 22.29C19.9976 22.413 19.5194 22.5607 18.6436 22.5993C17.694 22.6416 17.4092 22.652 15.0071 22.652C12.6049 22.652 12.3166 22.6416 11.3704 22.5993C10.4912 22.5607 10.0164 22.413 9.69985 22.29C9.30955 22.1457 8.95427 21.9172 8.66591 21.6183C8.36696 21.3264 8.13836 20.9748 7.99411 20.5845C7.87101 20.2681 7.72333 19.7898 7.68472 18.9143C7.64241 17.9649 7.63197 17.68 7.63197 15.2783C7.63197 12.8766 7.64241 12.5883 7.68472 11.6425C7.72333 10.7634 7.87101 10.2887 7.99411 9.97225C8.13836 9.58188 8.36696 9.22681 8.66948 8.93836C8.96128 8.63948 9.31298 8.41092 9.70342 8.26683C10.02 8.14376 10.4983 7.9961 11.374 7.95737C12.3236 7.9152 12.6085 7.90462 15.0105 7.90462C17.4162 7.90462 17.701 7.9152 18.6472 7.95737C19.5264 7.9961 20.0012 8.14376 20.3177 8.26683C20.708 8.41092 21.0633 8.63948 21.3517 8.93836C21.6506 9.23025 21.8792 9.58188 22.0235 9.97225C22.1466 10.2887 22.2943 10.7669 22.333 11.6425C22.3752 12.5919 22.3858 12.8766 22.3858 15.2783C22.3858 17.68 22.3752 17.9613 22.333 18.9107Z" fill="black"/>
<path d="M15.002 10.6719C12.4648 10.6719 10.4062 12.7303 10.4062 15.2677C10.4062 17.805 12.4648 19.8634 15.002 19.8634C17.5393 19.8634 19.5977 17.805 19.5977 15.2677C19.5977 12.7303 17.5393 10.6719 15.002 10.6719ZM15.002 18.2488C13.356 18.2488 12.0209 16.9138 12.0209 15.2677C12.0209 13.6215 13.356 12.2865 15.002 12.2865C16.6481 12.2865 17.9831 13.6215 17.9831 15.2677C17.9831 16.9138 16.6481 18.2488 15.002 18.2488Z" fill="black"/>
<path d="M20.9385 10.4809C20.9385 11.1154 20.4241 11.6298 19.7895 11.6298C19.155 11.6298 18.6406 11.1154 18.6406 10.4809C18.6406 9.84632 19.155 9.33203 19.7895 9.33203C20.4241 9.33203 20.9385 9.84632 20.9385 10.4809Z" fill="black"/>
</svg>
