<svg width="30" height="30" viewBox="0 0 30 30" fill="none" xmlns="http://www.w3.org/2000/svg">
<circle cx="15" cy="15" r="15" fill="black"/>
<path d="M22.5301 2.01185C20.232 0.67053 17.722 0 15.0006 0C12.2789 0 9.769 0.67053 7.47084 2.01185C5.17268 3.35322 3.35291 5.17299 2.01185 7.47084C0.67053 9.76926 0 12.2792 0 15.0006C0 18.0346 0.826507 20.7886 2.48045 23.2624C4.13409 25.7369 6.30197 27.5661 8.98466 28.7508C8.93234 27.3575 9.01703 26.2054 9.23859 25.2939L11.1722 17.1295C10.8466 16.4916 10.6839 15.6974 10.6839 14.7466C10.6839 13.6399 10.9639 12.7151 11.5238 11.9732C12.0833 11.2308 12.7672 10.8595 13.5746 10.8595C14.2255 10.8595 14.727 11.0741 15.0786 11.5043C15.4302 11.9339 15.6062 12.4744 15.6062 13.1253C15.6062 13.5292 15.531 14.0209 15.3817 14.6001C15.2317 15.1797 15.0364 15.8501 14.7958 16.612C14.5549 17.3735 14.3824 17.9822 14.2781 18.4381C14.0955 19.2323 14.2454 19.9126 14.7273 20.4791C15.2088 21.0457 15.8471 21.3287 16.6415 21.3287C18.0349 21.3287 19.1775 20.5542 20.0696 19.0046C20.9615 17.455 21.4074 15.5734 21.4074 13.3595C21.4074 11.6539 20.8575 10.2669 19.7571 9.19917C18.6567 8.13173 17.1231 7.59754 15.1573 7.59754C12.9564 7.59754 11.1756 8.30423 9.81526 9.71657C8.45456 11.1296 7.77419 12.8193 7.77419 14.7849C7.77419 15.9569 8.10645 16.9404 8.7703 17.7346C8.9916 17.9951 9.06324 18.2748 8.98523 18.5741C8.95891 18.6524 8.90695 18.8476 8.82894 19.1599C8.75098 19.4722 8.69866 19.6745 8.67265 19.7654C8.56832 20.1824 8.32107 20.3126 7.93017 20.156C6.92743 19.7394 6.16557 19.0169 5.64501 17.9881C5.12414 16.9596 4.86383 15.7683 4.86383 14.414C4.86383 13.5415 5.00364 12.669 5.28358 11.7965C5.56352 10.9241 5.99944 10.0811 6.59232 9.26693C7.18452 8.45373 7.89437 7.73379 8.7215 7.10889C9.54832 6.48369 10.5543 5.98281 11.7393 5.60455C12.9241 5.22727 14.2004 5.03835 15.5677 5.03835C17.4167 5.03835 19.077 5.44857 20.5483 6.26871C22.0196 7.08921 23.1429 8.15064 23.9177 9.45264C24.6922 10.7547 25.0799 12.1477 25.0799 13.6327C25.0799 15.5859 24.7411 17.3439 24.0642 18.9065C23.3871 20.4692 22.4299 21.6963 21.1928 22.5882C19.9554 23.48 18.5491 23.9261 16.9738 23.9261C16.1793 23.9261 15.4371 23.7406 14.747 23.3693C14.0565 22.9981 13.5813 22.5587 13.321 22.0508C12.7351 24.3553 12.3835 25.7297 12.2662 26.1719C12.0186 27.0967 11.5107 28.1641 10.7426 29.3752C12.1359 29.7918 13.5552 30 15.0006 30C17.722 30 20.232 29.3295 22.5301 27.9885C24.8282 26.6471 26.648 24.8274 27.9894 22.5289C29.3304 20.2307 30.0013 17.7211 30.0013 14.9993C30.0013 12.2776 29.3304 9.76806 27.9894 7.46959C26.6483 5.17299 24.8282 3.35322 22.5301 2.01185Z" fill="#FAFAFA"/>
</svg>
