<svg width="30" height="30" viewBox="0 0 30 30" fill="none" xmlns="http://www.w3.org/2000/svg">
<path d="M14.3294 0.00484848C13.6248 0.0486107 13.237 0.0882053 12.693 0.17156C9.55359 0.655025 6.64977 2.13251 4.39634 4.38938C2.1304 6.65666 0.66077 9.54495 0.177148 12.6833C0.0645807 13.4148 0.0208045 13.9211 0.00412789 14.6943C-0.0584095 17.7784 0.81086 20.7605 2.52022 23.3216C3.75846 25.1742 5.39693 26.735 7.30849 27.8812C9.36806 29.1149 11.6236 29.813 14.0896 29.9797C14.4836 30.0068 15.5322 30.0068 15.9553 29.9797C17.9857 29.8505 19.9202 29.3316 21.7192 28.4334C22.824 27.8812 23.7141 27.2956 24.7001 26.4683C26.0384 25.3472 27.2246 23.9134 28.1043 22.3484C28.2898 22.0213 28.6754 21.2398 28.8172 20.9043C29.3425 19.6685 29.701 18.364 29.8803 17.0532C29.9846 16.2718 30.0033 15.9654 30.0033 14.9964C30.0033 14.0295 29.9866 13.7628 29.8782 12.9605C29.3071 8.72389 26.9119 4.90202 23.3347 2.51387C21.1814 1.07806 18.8029 0.257 16.1534 0.0340233C15.8907 0.0111008 14.5628 -0.00973892 14.3294 0.00484848ZM18.2108 5.85853C18.5194 8.06329 20.2892 9.81169 22.5113 10.1118C22.6322 10.1264 22.7469 10.1409 22.7677 10.1409C22.8011 10.1409 22.8032 10.2285 22.8032 11.7018V13.2605L22.7073 13.2751C22.5343 13.2981 22.0486 13.2876 21.7734 13.2564C20.3746 13.0917 19.1156 12.3645 18.3047 11.2517C18.2275 11.1454 18.1587 11.0599 18.1504 11.0579C18.1421 11.0579 18.1316 12.9271 18.1275 15.209C18.1212 19.8144 18.1316 19.4476 17.9836 20.0707C17.7981 20.8564 17.3979 21.6753 16.8913 22.3109C16.6745 22.5818 16.1721 23.0715 15.8928 23.282C14.4961 24.3302 12.7868 24.6887 11.0878 24.2906C10.3228 24.1093 9.50356 23.7071 8.85734 23.1924C8.61344 22.9944 8.18402 22.5693 7.99432 22.3318C7.28348 21.4419 6.85614 20.3875 6.74983 19.2622C6.72064 18.935 6.73524 18.2411 6.7811 17.9389C6.93744 16.9011 7.3752 15.9092 8.02767 15.1173C8.38622 14.6838 8.9032 14.2275 9.38265 13.9211C9.65156 13.7482 10.1915 13.4835 10.4958 13.3752C10.7626 13.2793 11.2171 13.1605 11.5048 13.1126C11.9071 13.048 12.4616 13.0188 12.7013 13.0501L12.7972 13.0647L12.793 14.463L12.7868 15.8613L12.6825 15.8508C12.4574 15.8279 12.078 15.8467 11.8654 15.8904C10.8606 16.0988 10.0622 16.7823 9.69742 17.7472C9.53691 18.1702 9.48271 18.7537 9.56192 19.2163C9.61821 19.5414 9.68492 19.7436 9.83709 20.0499C10.3603 21.1043 11.5152 21.7524 12.6784 21.6441C13.4643 21.5691 14.0792 21.2836 14.6212 20.7397C15.0485 20.3125 15.2778 19.8978 15.4154 19.3101C15.4488 19.1663 15.4529 18.8892 15.4655 15.8404C15.4738 14.017 15.4821 10.9891 15.4842 9.10733C15.4842 7.22765 15.4926 5.68139 15.5009 5.67514C15.5071 5.66681 16.1158 5.66264 16.8496 5.66472L18.1837 5.67098L18.2108 5.85853Z" fill="#FAFAFA"/>
</svg>
