<svg width="30" height="30" viewBox="0 0 30 30" fill="none" xmlns="http://www.w3.org/2000/svg">
<circle cx="15.0039" cy="15" r="15" fill="#FAFAFA"/>
<path d="M23.633 10.972C23.4256 10.2009 22.8176 9.59304 22.0466 9.3854C20.6381 9 15.0037 9 15.0037 9C15.0037 9 9.36957 9 7.96101 9.37079C7.20482 9.57821 6.58201 10.201 6.37459 10.972C6.00391 12.3805 6.00391 15.3014 6.00391 15.3014C6.00391 15.3014 6.00391 18.2371 6.37459 19.6308C6.58223 20.4019 7.18999 21.0097 7.96112 21.2174C9.38441 21.6029 15.0039 21.6029 15.0039 21.6029C15.0039 21.6029 20.6381 21.6029 22.0466 21.2321C22.8177 21.0246 23.4256 20.4167 23.6333 19.6457C24.0038 18.2371 24.0038 15.3163 24.0038 15.3163C24.0038 15.3163 24.0187 12.3805 23.633 10.972ZM13.2099 17.9999V12.603L17.8951 15.3014L13.2099 17.9999Z" fill="black"/>
</svg>
