<svg width="30" height="30" viewBox="0 0 30 30" fill="none" xmlns="http://www.w3.org/2000/svg">
<circle cx="15" cy="15" r="14" stroke="black" stroke-width="2"/>
<path d="M17.848 19.16C18.0613 19.16 18.2293 19.2213 18.352 19.344C18.48 19.4613 18.544 19.6187 18.544 19.816V21H10.608V20.344C10.608 20.2107 10.6347 20.072 10.688 19.928C10.7467 19.7787 10.8373 19.6453 10.96 19.528L14.472 16.008C14.7653 15.7093 15.0267 15.424 15.256 15.152C15.4907 14.88 15.6853 14.6107 15.84 14.344C15.9947 14.0773 16.112 13.808 16.192 13.536C16.2773 13.2587 16.32 12.968 16.32 12.664C16.32 12.3867 16.28 12.144 16.2 11.936C16.12 11.7227 16.0053 11.544 15.856 11.4C15.712 11.256 15.536 11.1493 15.328 11.08C15.1253 11.0053 14.896 10.968 14.64 10.968C14.4053 10.968 14.1867 11.0027 13.984 11.072C13.7867 11.136 13.6107 11.2293 13.456 11.352C13.3013 11.4693 13.1707 11.608 13.064 11.768C12.9573 11.928 12.8773 12.104 12.824 12.296C12.7333 12.5413 12.616 12.704 12.472 12.784C12.328 12.864 12.12 12.8827 11.848 12.84L10.808 12.656C10.888 12.1013 11.0427 11.616 11.272 11.2C11.5013 10.7787 11.7867 10.4293 12.128 10.152C12.4747 9.86933 12.8693 9.65867 13.312 9.52C13.76 9.376 14.24 9.304 14.752 9.304C15.2853 9.304 15.7733 9.384 16.216 9.544C16.6587 9.69867 17.0373 9.92 17.352 10.208C17.6667 10.496 17.912 10.8427 18.088 11.248C18.264 11.6533 18.352 12.104 18.352 12.6C18.352 13.0267 18.288 13.4213 18.16 13.784C18.0373 14.1467 17.8693 14.4933 17.656 14.824C17.448 15.1547 17.2027 15.4747 16.92 15.784C16.6373 16.0933 16.3413 16.408 16.032 16.728L13.424 19.392C13.6747 19.3173 13.9227 19.2613 14.168 19.224C14.4187 19.1813 14.656 19.16 14.88 19.16H17.848Z" fill="black"/>
</svg>
