<svg width="30" height="30" viewBox="0 0 30 30" fill="none" xmlns="http://www.w3.org/2000/svg">
<circle cx="15" cy="15" r="14" stroke="black" stroke-width="2"/>
<path d="M10.864 12.656C10.944 12.1013 11.0987 11.616 11.328 11.2C11.5573 10.7787 11.8427 10.4293 12.184 10.152C12.5307 9.86933 12.9253 9.65867 13.368 9.52C13.816 9.376 14.296 9.304 14.808 9.304C15.3413 9.304 15.8213 9.38133 16.248 9.536C16.68 9.68533 17.048 9.896 17.352 10.168C17.656 10.4347 17.888 10.7493 18.048 11.112C18.2133 11.4747 18.296 11.8667 18.296 12.288C18.296 12.656 18.2533 12.9813 18.168 13.264C18.088 13.5413 17.9707 13.784 17.816 13.992C17.6613 14.2 17.4693 14.376 17.24 14.52C17.0107 14.664 16.752 14.784 16.464 14.88C17.1573 15.0987 17.6747 15.432 18.016 15.88C18.3573 16.328 18.528 16.8907 18.528 17.568C18.528 18.144 18.4213 18.6533 18.208 19.096C17.9947 19.5387 17.7067 19.912 17.344 20.216C16.9813 20.5147 16.56 20.7413 16.08 20.896C15.6053 21.0507 15.1013 21.128 14.568 21.128C13.9867 21.128 13.48 21.0613 13.048 20.928C12.616 20.7947 12.24 20.5973 11.92 20.336C11.6 20.0747 11.328 19.7547 11.104 19.376C10.88 18.9973 10.688 18.56 10.528 18.064L11.4 17.704C11.6293 17.608 11.8427 17.584 12.04 17.632C12.2427 17.6747 12.3893 17.7813 12.48 17.952C12.576 18.1387 12.68 18.3227 12.792 18.504C12.9093 18.6853 13.048 18.848 13.208 18.992C13.368 19.1307 13.5547 19.2453 13.768 19.336C13.9867 19.4213 14.2453 19.464 14.544 19.464C14.88 19.464 15.1733 19.4107 15.424 19.304C15.6747 19.192 15.8827 19.048 16.048 18.872C16.2187 18.696 16.344 18.5013 16.424 18.288C16.5093 18.0693 16.552 17.8507 16.552 17.632C16.552 17.3547 16.5227 17.104 16.464 16.88C16.4053 16.6507 16.2827 16.456 16.096 16.296C15.9093 16.136 15.64 16.0107 15.288 15.92C14.9413 15.8293 14.4747 15.784 13.888 15.784V14.376C14.3733 14.3707 14.776 14.3253 15.096 14.24C15.416 14.1547 15.6693 14.0373 15.856 13.888C16.048 13.7333 16.1813 13.5493 16.256 13.336C16.3307 13.1227 16.368 12.888 16.368 12.632C16.368 12.088 16.216 11.6747 15.912 11.392C15.608 11.1093 15.2027 10.968 14.696 10.968C14.4613 10.968 14.2453 11.0027 14.048 11.072C13.8507 11.136 13.672 11.2293 13.512 11.352C13.3573 11.4693 13.2267 11.608 13.12 11.768C13.0133 11.928 12.9333 12.104 12.88 12.296C12.7893 12.5413 12.6693 12.704 12.52 12.784C12.376 12.864 12.1707 12.8827 11.904 12.84L10.864 12.656Z" fill="black"/>
</svg>
