<svg width="30" height="30" viewBox="0 0 30 30" fill="none" xmlns="http://www.w3.org/2000/svg">
<circle cx="15" cy="15" r="14" stroke="black" stroke-width="2"/>
<path d="M13.248 13.632C13.504 13.5787 13.7493 13.5413 13.984 13.52C14.2187 13.4933 14.4453 13.48 14.664 13.48C15.272 13.48 15.808 13.5707 16.272 13.752C16.736 13.9333 17.1253 14.184 17.44 14.504C17.7547 14.824 17.992 15.2 18.152 15.632C18.312 16.0587 18.392 16.52 18.392 17.016C18.392 17.6293 18.2827 18.1893 18.064 18.696C17.8507 19.2027 17.552 19.6373 17.168 20C16.784 20.3573 16.328 20.6347 15.8 20.832C15.2773 21.0293 14.7067 21.128 14.088 21.128C13.7253 21.128 13.3813 21.0907 13.056 21.016C12.7307 20.9413 12.424 20.8427 12.136 20.72C11.8533 20.592 11.5893 20.448 11.344 20.288C11.104 20.1227 10.888 19.9493 10.696 19.768L11.304 18.928C11.432 18.7467 11.6 18.656 11.808 18.656C11.9413 18.656 12.0773 18.6987 12.216 18.784C12.3547 18.8693 12.512 18.9627 12.688 19.064C12.8693 19.1653 13.08 19.2587 13.32 19.344C13.5653 19.4293 13.8587 19.472 14.2 19.472C14.5627 19.472 14.8827 19.4133 15.16 19.296C15.4373 19.1787 15.6667 19.016 15.848 18.808C16.0347 18.5947 16.1733 18.344 16.264 18.056C16.36 17.7627 16.408 17.4453 16.408 17.104C16.408 16.4747 16.224 15.984 15.856 15.632C15.4933 15.2747 14.9547 15.096 14.24 15.096C13.6907 15.096 13.128 15.1973 12.552 15.4L11.32 15.048L12.28 9.432H17.992V10.272C17.992 10.5547 17.904 10.784 17.728 10.96C17.552 11.136 17.2533 11.224 16.832 11.224H13.656L13.248 13.632Z" fill="black"/>
</svg>
