<svg width="30" height="30" viewBox="0 0 30 30" fill="none" xmlns="http://www.w3.org/2000/svg">
<path d="M8.4375 6.09375C8.4375 4.79933 7.38817 3.75 6.09375 3.75C4.79933 3.75 3.75 4.79933 3.75 6.09375C3.75 7.38817 4.79933 8.4375 6.09375 8.4375C7.38817 8.4375 8.4375 7.38817 8.4375 6.09375Z" stroke="black" stroke-width="1.875" stroke-miterlimit="10"/>
<path d="M17.3438 6.09375C17.3438 4.79933 16.2944 3.75 15 3.75C13.7056 3.75 12.6562 4.79933 12.6562 6.09375C12.6562 7.38817 13.7056 8.4375 15 8.4375C16.2944 8.4375 17.3438 7.38817 17.3438 6.09375Z" stroke="black" stroke-width="1.875" stroke-miterlimit="10"/>
<path d="M26.25 6.09375C26.25 4.79933 25.2007 3.75 23.9062 3.75C22.6118 3.75 21.5625 4.79933 21.5625 6.09375C21.5625 7.38817 22.6118 8.4375 23.9062 8.4375C25.2007 8.4375 26.25 7.38817 26.25 6.09375Z" stroke="black" stroke-width="1.875" stroke-miterlimit="10"/>
<path d="M8.4375 15C8.4375 13.7056 7.38817 12.6562 6.09375 12.6562C4.79933 12.6562 3.75 13.7056 3.75 15C3.75 16.2944 4.79933 17.3438 6.09375 17.3438C7.38817 17.3438 8.4375 16.2944 8.4375 15Z" stroke="black" stroke-width="1.875" stroke-miterlimit="10"/>
<path d="M17.3438 15C17.3438 13.7056 16.2944 12.6562 15 12.6562C13.7056 12.6562 12.6562 13.7056 12.6562 15C12.6562 16.2944 13.7056 17.3438 15 17.3438C16.2944 17.3438 17.3438 16.2944 17.3438 15Z" stroke="black" stroke-width="1.875" stroke-miterlimit="10"/>
<path d="M26.25 15C26.25 13.7056 25.2007 12.6562 23.9062 12.6562C22.6118 12.6562 21.5625 13.7056 21.5625 15C21.5625 16.2944 22.6118 17.3438 23.9062 17.3438C25.2007 17.3438 26.25 16.2944 26.25 15Z" stroke="black" stroke-width="1.875" stroke-miterlimit="10"/>
<path d="M8.4375 23.9062C8.4375 22.6118 7.38817 21.5625 6.09375 21.5625C4.79933 21.5625 3.75 22.6118 3.75 23.9062C3.75 25.2007 4.79933 26.25 6.09375 26.25C7.38817 26.25 8.4375 25.2007 8.4375 23.9062Z" stroke="black" stroke-width="1.875" stroke-miterlimit="10"/>
<path d="M17.3438 23.9062C17.3438 22.6118 16.2944 21.5625 15 21.5625C13.7056 21.5625 12.6562 22.6118 12.6562 23.9062C12.6562 25.2007 13.7056 26.25 15 26.25C16.2944 26.25 17.3438 25.2007 17.3438 23.9062Z" stroke="black" stroke-width="1.875" stroke-miterlimit="10"/>
<path d="M26.25 23.9062C26.25 22.6118 25.2007 21.5625 23.9062 21.5625C22.6118 21.5625 21.5625 22.6118 21.5625 23.9062C21.5625 25.2007 22.6118 26.25 23.9062 26.25C25.2007 26.25 26.25 25.2007 26.25 23.9062Z" stroke="black" stroke-width="1.875" stroke-miterlimit="10"/>
</svg>
