<svg width="20" height="21" viewBox="0 0 20 21" fill="none" xmlns="http://www.w3.org/2000/svg">
<g clip-path="url(#clip0_200_588)">
<path d="M9.98674 5.34601C6.94222 5.34601 3.81917 7.10812 1.36058 10.6323C1.29041 10.734 1.25195 10.8543 1.25007 10.9778C1.24819 11.1013 1.28298 11.2227 1.35004 11.3265C3.2391 14.2835 6.32034 16.596 9.98674 16.596C13.6133 16.596 16.7578 14.2765 18.6504 11.3128C18.7159 11.211 18.7507 11.0926 18.7507 10.9716C18.7507 10.8506 18.7159 10.7321 18.6504 10.6304C16.7535 7.70069 13.586 5.34601 9.98674 5.34601Z" stroke="#717171" stroke-width="1.25181" stroke-linecap="round" stroke-linejoin="round"/>
<path d="M10 14.096C11.7259 14.096 13.125 12.6969 13.125 10.971C13.125 9.24512 11.7259 7.84601 10 7.84601C8.27411 7.84601 6.875 9.24512 6.875 10.971C6.875 12.6969 8.27411 14.096 10 14.096Z" stroke="#717171" stroke-width="1.25181" stroke-miterlimit="10"/>
</g>
<defs>
<clipPath id="clip0_200_588">
<rect width="20" height="20" fill="white" transform="translate(0 0.971008)"/>
</clipPath>
</defs>
</svg>
