<svg width="31" height="30" viewBox="0 0 31 30" fill="none" xmlns="http://www.w3.org/2000/svg">
<circle cx="15.3125" cy="15" r="15" fill="#F5008E"/>
<path d="M24.2668 11.2921C24.2246 10.3357 24.0699 9.67813 23.8483 9.10837C23.6197 8.50359 23.268 7.96214 22.8072 7.51202C22.357 7.0549 21.8119 6.69969 21.214 6.4747C20.6408 6.25315 19.9866 6.09848 19.03 6.05632C18.0663 6.01058 17.7603 6 15.316 6C12.8717 6 12.5657 6.01058 11.6056 6.05274C10.649 6.09491 9.99133 6.24971 9.4216 6.47113C8.81657 6.69969 8.27501 7.05133 7.82481 7.51202C7.3676 7.96214 7.01246 8.50717 6.78729 9.10494C6.5657 9.67813 6.411 10.3321 6.36883 11.2885C6.32308 12.252 6.3125 12.5579 6.3125 15.0018C6.3125 17.4456 6.32308 17.7515 6.36525 18.7115C6.40743 19.6679 6.56226 20.3254 6.78386 20.8952C7.01246 21.5 7.3676 22.0414 7.82481 22.4916C8.27501 22.9487 8.82014 23.3039 9.41803 23.5289C9.99133 23.7504 10.6454 23.9051 11.6021 23.9473C12.5622 23.9896 12.8683 24 15.3126 24C17.7569 24 18.0628 23.9896 19.023 23.9473C19.9796 23.9051 20.6372 23.7504 21.207 23.5289C22.4169 23.0612 23.3735 22.1048 23.8413 20.8952C24.0627 20.322 24.2176 19.6679 24.2597 18.7115C24.3019 17.7515 24.3125 17.4456 24.3125 15.0018C24.3125 12.5579 24.3089 12.252 24.2668 11.2921ZM22.6455 18.6412C22.6068 19.5203 22.4591 19.995 22.336 20.3114C22.0335 21.0956 21.411 21.718 20.6267 22.0204C20.3101 22.1435 19.8319 22.2911 18.9561 22.3297C18.0065 22.3721 17.7217 22.3825 15.3196 22.3825C12.9174 22.3825 12.6291 22.3721 11.6829 22.3297C10.8037 22.2911 10.3289 22.1435 10.0123 22.0204C9.62205 21.8762 9.26677 21.6476 8.97841 21.3487C8.67946 21.0569 8.45086 20.7052 8.30661 20.315C8.18351 19.9985 8.03583 19.5203 7.99722 18.6448C7.95491 17.6953 7.94447 17.4105 7.94447 15.0088C7.94447 12.6071 7.95491 12.3188 7.99722 11.373C8.03583 10.4939 8.18351 10.0192 8.30661 9.70271C8.45086 9.31235 8.67946 8.95728 8.98198 8.66883C9.27378 8.36995 9.62548 8.14139 10.0159 7.9973C10.3325 7.87423 10.8108 7.72657 11.6865 7.68783C12.6361 7.64567 12.921 7.63509 15.323 7.63509C17.7287 7.63509 18.0135 7.64567 18.9597 7.68783C19.8389 7.72657 20.3137 7.87423 20.6302 7.9973C21.0205 8.14139 21.3758 8.36995 21.6642 8.66883C21.9631 8.96072 22.1917 9.31235 22.336 9.70271C22.4591 10.0192 22.6068 10.4973 22.6455 11.373C22.6877 12.3224 22.6983 12.6071 22.6983 15.0088C22.6983 17.4105 22.6877 17.6918 22.6455 18.6412Z" fill="white"/>
<path d="M15.3145 10.4023C12.7773 10.4023 10.7188 12.4608 10.7188 14.9981C10.7188 17.5355 12.7773 19.5939 15.3145 19.5939C17.8518 19.5939 19.9102 17.5355 19.9102 14.9981C19.9102 12.4608 17.8518 10.4023 15.3145 10.4023ZM15.3145 17.9793C13.6685 17.9793 12.3334 16.6443 12.3334 14.9981C12.3334 13.352 13.6685 12.017 15.3145 12.017C16.9606 12.017 18.2956 13.352 18.2956 14.9981C18.2956 16.6443 16.9606 17.9793 15.3145 17.9793Z" fill="white"/>
</svg>
