<svg width="20" height="28" viewBox="0 0 20 28" fill="none" xmlns="http://www.w3.org/2000/svg">
<path d="M9.99927 1.8125C5.34106 1.8125 1.56177 5.40957 1.56177 9.83984C1.56177 14.9375 7.18677 23.0158 9.2522 25.8061C9.33793 25.9238 9.4503 26.0197 9.58013 26.0858C9.70997 26.1518 9.85359 26.1863 9.99927 26.1863C10.145 26.1863 10.2886 26.1518 10.4184 26.0858C10.5482 26.0197 10.6606 25.9238 10.7463 25.8061C12.8118 23.017 18.4368 14.9416 18.4368 9.83984C18.4368 5.40957 14.6575 1.8125 9.99927 1.8125Z" stroke="black" stroke-width="1.87196" stroke-linecap="round" stroke-linejoin="round"/>
<path d="M9.99976 13.0625C11.5531 13.0625 12.8123 11.8033 12.8123 10.25C12.8123 8.6967 11.5531 7.4375 9.99976 7.4375C8.44646 7.4375 7.18726 8.6967 7.18726 10.25C7.18726 11.8033 8.44646 13.0625 9.99976 13.0625Z" stroke="black" stroke-width="1.87196" stroke-linecap="round" stroke-linejoin="round"/>
</svg>
