<?xml version="1.0" standalone="no"?>
<!DOCTYPE svg PUBLIC "-//W3C//DTD SVG 20010904//EN"
 "http://www.w3.org/TR/2001/REC-SVG-20010904/DTD/svg10.dtd">
<svg version="1.0" xmlns="http://www.w3.org/2000/svg"
 width="600.000000pt" height="300.000000pt" viewBox="0 0 600.000000 300.000000"
 preserveAspectRatio="xMidYMid meet">

<g transform="translate(0.000000,300.000000) scale(0.100000,-0.100000)"
fill="#000000" stroke="none">
<path d="M4559 2548 c-17 -7 -19 -18 -19 -146 0 -100 -4 -142 -12 -150 -8 -6
-97 -12 -208 -14 -166 -4 -205 -8 -262 -27 -181 -59 -288 -195 -318 -406 -14
-105 -13 -618 2 -633 8 -8 62 -12 179 -12 164 0 167 0 173 22 3 13 6 149 6
303 0 326 5 346 82 387 38 20 60 23 196 26 83 2 153 2 154 0 1 -1 5 -167 8
-368 l5 -365 175 0 175 0 5 365 5 365 143 5 c112 4 145 8 152 20 15 23 13 293
-2 308 -8 8 -55 12 -144 12 -97 0 -134 3 -142 13 -7 8 -13 71 -14 153 l-3 139
-158 5 c-87 3 -167 2 -178 -2z"/>
<path d="M846 2224 c-182 -44 -341 -204 -391 -394 -72 -271 103 -576 373 -652
67 -19 297 -28 321 -13 16 9 15 277 -1 293 -8 8 -49 12 -118 12 -125 0 -168
16 -222 79 -43 50 -63 115 -55 176 12 84 55 142 137 186 15 8 75 15 145 19
l120 5 0 150 0 150 -125 2 c-81 1 -146 -3 -184 -13z"/>
<path d="M1755 2233 c-116 -15 -213 -63 -305 -149 -304 -287 -170 -807 227
-884 81 -16 284 -10 307 9 14 12 16 32 14 145 l-3 130 -120 1 c-104 0 -125 3
-161 22 -84 45 -119 114 -112 219 3 50 10 72 33 106 80 112 262 124 356 21 63
-67 64 -71 67 -393 3 -211 7 -297 15 -302 7 -4 71 -8 143 -8 103 0 134 3 144
15 9 11 11 91 8 322 -4 283 -6 313 -26 374 -81 246 -333 406 -587 372z"/>
<path d="M2943 2230 c-175 -32 -325 -143 -398 -297 -143 -299 10 -653 316
-728 99 -25 315 -18 335 10 17 23 20 245 4 261 -7 7 -48 9 -108 6 -86 -4 -104
-2 -150 18 -203 87 -176 373 40 419 85 19 170 -8 223 -71 53 -63 55 -75 55
-382 0 -245 2 -287 16 -300 12 -13 41 -16 149 -16 88 0 136 4 141 11 3 6 6
150 5 320 -2 335 -5 359 -61 469 -59 117 -182 221 -306 260 -77 23 -191 32
-261 20z"/>
<path d="M5325 1481 c-167 -77 -115 -321 69 -321 79 0 145 51 165 128 21 76
-15 152 -89 190 -53 27 -92 28 -145 3z"/>
<path d="M1212 765 c-54 -24 -78 -105 -48 -164 20 -37 39 -51 81 -61 80 -18
155 36 155 111 0 103 -89 157 -188 114z m117 -61 c12 -15 21 -35 21 -46 0 -75
-102 -103 -136 -36 -40 78 61 150 115 82z"/>
<path d="M3473 760 c-40 -24 -53 -48 -53 -100 0 -71 22 -98 102 -123 20 -7 85
10 94 24 3 6 -1 18 -9 26 -13 13 -20 14 -45 4 -70 -29 -125 66 -71 120 18 18
29 20 64 16 55 -8 78 12 43 37 -31 22 -86 20 -125 -4z"/>
<path d="M4112 760 c-37 -23 -52 -54 -52 -110 0 -74 75 -128 155 -110 42 10
61 24 81 61 58 112 -74 226 -184 159z m120 -47 c25 -30 29 -52 14 -88 -34 -81
-154 -36 -132 50 3 13 13 31 22 39 21 21 77 20 96 -1z"/>
<path d="M4716 759 c-17 -14 -26 -30 -26 -50 0 -33 31 -69 58 -69 10 0 27 -6
38 -14 18 -14 18 -16 2 -32 -15 -15 -21 -16 -44 -5 -24 10 -30 9 -47 -7 -19
-20 -19 -20 4 -32 63 -34 149 1 149 61 0 30 -40 69 -70 69 -22 0 -44 26 -35
41 5 7 21 9 40 6 25 -4 38 -1 50 14 17 18 16 19 -9 29 -42 16 -81 12 -110 -11z"/>
<path d="M1480 655 l0 -115 25 0 c24 0 24 2 27 83 l3 82 48 -82 c46 -78 51
-83 83 -83 l34 0 0 115 0 115 -25 0 c-23 0 -24 -3 -27 -76 l-3 -76 -45 76
c-43 72 -47 75 -82 76 l-38 0 0 -115z"/>
<path d="M1790 655 l0 -115 75 0 c73 0 75 1 75 25 0 23 -4 25 -45 25 l-45 0 0
90 0 90 -30 0 -30 0 0 -115z"/>
<path d="M2010 655 l0 -115 25 0 25 0 0 115 0 115 -25 0 -25 0 0 -115z"/>
<path d="M2150 655 l0 -115 25 0 c24 0 24 2 27 83 l3 82 50 -82 c46 -77 52
-83 82 -83 l33 0 0 115 0 115 -25 0 c-25 0 -25 -2 -25 -77 l0 -78 -48 77 c-45
75 -48 78 -84 78 l-38 0 0 -115z"/>
<path d="M2470 655 l0 -115 80 0 c79 0 80 0 80 25 0 24 -3 25 -55 25 -52 0
-55 1 -55 25 0 23 3 25 50 25 43 0 50 3 50 20 0 17 -7 20 -50 20 -47 0 -50 2
-50 25 0 23 3 25 50 25 43 0 50 3 50 20 0 18 -7 20 -75 20 l-75 0 0 -115z"/>
<path d="M2910 725 c-11 -25 -29 -66 -41 -92 -42 -96 -42 -93 -9 -93 23 0 31
5 36 25 5 22 11 25 53 25 41 0 49 -3 59 -25 8 -17 20 -25 37 -25 14 0 25 3 25
7 0 4 -21 56 -47 115 -40 93 -50 108 -70 108 -18 0 -28 -10 -43 -45z m54 -51
c11 -29 6 -44 -14 -44 -22 0 -23 3 -14 38 7 26 19 29 28 6z"/>
<path d="M3140 690 c0 -53 5 -91 15 -110 30 -59 140 -59 170 0 10 19 15 57 15
110 0 79 0 80 -25 80 -24 0 -25 -2 -25 -75 0 -62 -4 -79 -20 -95 -11 -11 -24
-20 -30 -20 -5 0 -19 9 -30 20 -16 16 -20 33 -20 95 0 73 -1 75 -25 75 -25 0
-25 -1 -25 -80z"/>
<path d="M3680 750 c0 -16 7 -20 30 -20 l30 0 0 -95 c0 -94 0 -95 25 -95 24 0
24 2 27 93 l3 92 33 3 c24 2 32 8 32 23 0 17 -8 19 -90 19 -83 0 -90 -1 -90
-20z"/>
<path d="M3930 655 l0 -115 25 0 25 0 0 115 0 115 -25 0 -25 0 0 -115z"/>
<path d="M4390 656 l0 -116 25 0 c25 0 25 1 25 82 l0 83 51 -83 c48 -77 53
-82 85 -82 l34 0 0 115 0 115 -25 0 c-23 0 -24 -3 -27 -77 l-3 -78 -46 75
c-42 69 -48 75 -82 78 l-37 3 0 -115z"/>
</g>
</svg>
