<?xml version="1.0" standalone="no"?>
<!DOCTYPE svg PUBLIC "-//W3C//DTD SVG 20010904//EN"
 "http://www.w3.org/TR/2001/REC-SVG-20010904/DTD/svg10.dtd">
<svg version="1.0" xmlns="http://www.w3.org/2000/svg"
 width="512.000000pt" height="512.000000pt" viewBox="0 0 512.000000 512.000000"
 preserveAspectRatio="xMidYMid meet">

<g transform="translate(0.000000,512.000000) scale(0.100000,-0.100000)"
fill="#000000" stroke="none">
<path d="M730 4351 c-245 -67 -431 -253 -497 -501 -17 -61 -18 -161 -18 -1460
l0 -1395 27 -57 c35 -75 104 -141 174 -168 55 -20 57 -20 1732 -18 l1677 3 58
33 c32 18 232 102 445 188 213 85 406 166 428 179 53 31 90 75 123 145 l26 55
3 1272 c3 1390 4 1352 -55 1473 -33 69 -141 179 -210 214 -118 59 0 56 -2008
55 -1727 0 -1844 -1 -1905 -18z m3240 -197 c0 -3 -9 -19 -20 -34 -36 -51 -80
-155 -95 -226 -11 -50 -15 -139 -15 -326 l0 -258 -673 0 -674 0 -12 43 c-26
86 -54 138 -82 152 -22 12 -78 15 -266 15 -304 0 -288 7 -347 -165 l-13 -40
-672 -3 -673 -2 4 247 3 248 37 78 c64 133 196 240 328 266 50 10 3170 15
3170 5z m569 -29 c50 -25 99 -73 128 -128 15 -27 19 -63 21 -218 l4 -186 -311
-116 c-171 -65 -316 -117 -321 -117 -13 0 -13 410 0 480 45 237 288 382 479
285z m151 -1751 c0 -659 -3 -992 -10 -1005 -6 -10 -28 -28 -49 -38 -38 -20
-531 -219 -563 -228 -17 -5 -18 48 -18 1005 0 794 3 1012 12 1018 19 12 601
232 616 233 9 1 12 -202 12 -985z m-2406 889 c9 -26 16 -50 16 -55 0 -4 -76
-8 -170 -8 l-169 0 15 43 c8 23 16 48 19 55 3 9 40 12 139 12 l134 0 16 -47z
m-574 -194 c0 -11 13 -34 29 -50 l29 -29 356 0 c248 0 363 4 380 12 14 6 34
28 43 49 l18 38 638 1 637 0 -2 -1035 -3 -1035 -28 -27 -27 -28 -1633 -3
c-1497 -3 -1635 -2 -1663 13 -18 10 -37 28 -43 41 -8 18 -11 316 -11 1049 l0
1025 640 0 640 0 0 -21z"/>
<path d="M1118 2863 c-31 -20 -44 -48 -53 -118 -8 -63 -43 -140 -84 -188 -40
-45 -138 -94 -206 -102 -73 -9 -101 -23 -119 -58 -15 -29 -17 -70 -14 -384 l3
-353 26 -25 c19 -20 42 -28 93 -36 176 -24 280 -130 302 -304 8 -63 27 -93 69
-111 51 -21 1949 -21 2000 0 41 18 60 53 69 129 17 152 131 266 283 283 76 9
111 28 129 69 21 50 21 670 0 720 -18 42 -48 61 -111 69 -87 11 -142 35 -199
87 -62 57 -91 117 -105 215 -8 51 -16 74 -36 93 l-25 26 -998 2 c-922 2 -999
1 -1024 -14z m1896 -253 c46 -154 193 -299 350 -345 l41 -12 3 -225 2 -225
-42 -12 c-163 -48 -311 -196 -359 -359 l-12 -42 -865 2 -865 3 -12 41 c-48
162 -203 315 -357 354 l-48 12 0 223 0 224 53 15 c157 46 307 196 353 354 l15
52 863 0 862 0 18 -60z"/>
</g>
</svg>
