<svg width="13" height="30" viewBox="0 0 13 30" fill="none" xmlns="http://www.w3.org/2000/svg">
<mask id="path-1-outside-1_1_2732" maskUnits="userSpaceOnUse" x="0.0859375" y="0" width="13" height="30" fill="black">
<rect fill="white" x="0.0859375" width="13" height="30"/>
<path d="M2.99763 1.04513C1.89257 1.17643 1.45492 1.69614 1.24703 3.11303C1.1595 3.69291 1.20327 4.6448 1.32909 5.02227C1.48227 5.47086 1.65186 5.62404 2.42869 6.0234C2.84992 6.23675 3.17269 6.43916 3.23287 6.52669C3.38604 6.72911 3.41887 7.16129 3.30398 7.38558C3.24928 7.47858 2.82257 7.96 2.34663 8.44688C1.80504 9.00488 1.44397 9.42612 1.36739 9.58477C0.96803 10.4108 0.995383 11.8441 1.4385 13.5455C1.61356 14.2129 1.71203 14.3934 1.98557 14.5302C2.56545 14.8147 3.48999 14.6451 4.19023 14.1309L4.36529 13.9996V14.191C4.36529 14.6342 4.05893 15.5915 3.51734 16.8224C3.01404 17.9822 2.76239 19.1693 2.6858 20.7284L2.65298 21.456L2.27004 21.7131C1.76127 22.0468 1.65186 22.2 1.66827 22.5447C1.68468 22.9057 1.79409 23.1081 2.20439 23.5294C2.62563 23.9616 2.58733 23.8248 3.07969 26.7023C3.40793 28.6444 3.43528 28.7593 3.57205 28.8742L3.71428 29H7.77895C11.8108 29 11.8491 29 11.9913 28.8851C12.1664 28.7484 12.1773 28.5131 12.0242 28.1685C11.8764 27.8293 11.7069 27.0853 11.6467 26.5218C11.592 25.9474 11.6522 24.9846 11.7999 24.0983C12.046 22.665 12.1007 22.0085 12.1007 20.63C12.1007 19.4921 12.0789 19.1912 11.9804 18.6441C11.8327 17.8345 11.6467 17.1944 11.302 16.2917C10.8042 14.9843 10.662 14.1418 10.6565 12.5334C10.6565 11.9481 10.6948 10.9634 10.744 10.3452C10.8261 9.32765 10.848 9.21277 10.9574 9.08694C11.1981 8.82435 11.2801 8.58912 11.2747 8.18429C11.2747 7.27617 10.7112 6.57593 9.75932 6.28599C9.43655 6.18752 9.30525 6.17657 8.74725 6.2094C8.39713 6.22581 7.95948 6.25863 7.76801 6.27505C7.12248 6.34069 6.63559 6.07263 6.36753 5.51463C6.13777 5.02227 6.13777 4.96757 6.35112 4.55727C6.75595 3.79685 6.73953 3.23338 6.29641 2.35261C5.908 1.57578 5.43753 1.17643 4.7537 1.04513C4.41999 0.984955 3.52828 0.984955 2.99763 1.04513ZM4.70993 1.9259C4.82482 1.95325 5.00535 2.0572 5.10929 2.1502C5.31717 2.3362 5.70012 3.04191 5.76029 3.35373C5.80953 3.62179 5.70559 3.97191 5.45394 4.36033C5.21323 4.73233 5.20229 4.80892 5.32811 5.24657C5.53053 5.94134 5.91894 6.53763 6.36206 6.81664C6.81612 7.10658 7.23189 7.19411 7.89383 7.1394C8.19472 7.11752 8.68707 7.09564 8.98796 7.09564C9.44749 7.09017 9.57331 7.11205 9.75932 7.21052C10.0493 7.3637 10.3064 7.65911 10.3775 7.9217C10.465 8.22259 10.4541 8.2937 10.2954 8.48517C10.1751 8.62741 10.1149 8.65476 9.95079 8.63835C9.78667 8.62194 9.72102 8.57817 9.54049 8.332C9.42014 8.16788 9.26696 8.03111 9.19037 8.00923C9.00984 7.96547 8.79102 8.08582 8.69802 8.28276C8.50654 8.67665 9.26149 9.52459 9.79761 9.52459C9.87967 9.52459 9.94532 9.53006 9.94532 9.53553C9.94532 9.54647 9.90702 9.95677 9.86326 10.4546C9.81949 10.9524 9.7812 11.866 9.7812 12.4897C9.7812 14.2129 9.93985 15.1703 10.465 16.5543C10.8589 17.5992 10.9957 18.0588 10.9136 18.0861C10.8753 18.1025 10.6018 18.1846 10.3009 18.2831C9.03172 18.6824 6.21983 19.8039 4.42546 20.6245C3.96046 20.8378 3.57205 21.0129 3.55563 21.0129C3.51734 21.0129 3.59393 20.1267 3.68693 19.4538C3.81822 18.5511 3.99328 17.9275 4.37076 17.0631C5.04364 15.5095 5.20229 14.9241 5.20776 14.0214C5.21323 13.3486 5.21323 13.3486 5.35 13.3212C5.6837 13.2446 5.84782 13.1735 5.92441 13.0641C6.1323 12.7632 5.89159 12.3256 5.55241 12.3912C5.01629 12.4897 4.79746 12.4897 4.5677 12.4021C4.09175 12.2216 3.90028 11.8824 3.84558 11.133C3.79634 10.4382 3.7854 10.4054 3.57205 10.3124C3.2274 10.1701 3.00857 10.3397 2.95934 10.7938C2.88275 11.5925 3.16722 12.4514 3.66505 12.8836L3.94952 13.1297L3.70334 13.3759C3.42981 13.644 2.99216 13.8136 2.6311 13.7807C2.45057 13.7643 2.42322 13.7424 2.4068 13.6166C2.39586 13.5127 2.42869 13.4306 2.51622 13.354C2.58733 13.2938 2.70769 13.1844 2.79522 13.1078C2.98669 12.9383 2.99216 12.6866 2.80616 12.5061C2.65298 12.3474 2.51074 12.3365 2.28098 12.4568C2.18798 12.5006 2.10592 12.5334 2.09498 12.5225C2.0348 12.4623 1.94727 11.2807 1.97462 10.8704C2.02386 10.0443 2.07857 9.94583 3.01951 8.99394C3.48452 8.52894 3.92764 8.02564 4.03705 7.85058C4.21758 7.5497 4.22852 7.50046 4.23399 7.04093V6.55405L4.48564 6.4884C4.6224 6.45557 4.80293 6.38446 4.87952 6.33522C5.13664 6.16563 5.13664 5.77175 4.87952 5.60216C4.74823 5.51463 4.7154 5.51463 4.39264 5.60216C3.96046 5.71704 3.70881 5.66233 2.86086 5.24657C2.10045 4.88004 2.09498 4.87457 2.09498 3.91721C2.09498 2.86138 2.28645 2.16661 2.59827 2.03531C2.98122 1.88214 4.29964 1.81102 4.70993 1.9259ZM11.1926 19.5468C11.1762 19.5851 10.9847 19.6781 10.7659 19.7492C9.93985 20.0118 7.93213 20.9965 7.66407 21.2645C7.48354 21.4451 7.49448 21.735 7.68048 21.8827C7.76254 21.9484 7.87195 21.9976 7.92119 21.9976C7.97589 21.9976 8.54484 21.7295 9.1849 21.4068C10.1696 20.909 11.0668 20.5205 11.2364 20.5205C11.2856 20.5205 11.2254 21.839 11.1489 22.4954C11.0832 23.0425 10.8206 24.7822 10.7878 24.8916C10.7769 24.9353 10.755 24.9572 10.744 24.9463C10.7221 24.9244 10.4705 23.7318 10.4103 23.3434C10.372 23.0972 10.1696 22.8729 9.98361 22.8729C9.80308 22.8729 9.58426 23.0589 9.54596 23.234C9.51861 23.3871 9.7429 24.5962 9.93985 25.3675C10.0985 25.9802 10.4541 26.9978 10.7112 27.5722C10.8316 27.8402 10.93 28.07 10.93 28.0919C10.93 28.1083 9.74837 28.1247 8.30413 28.1247H5.67823V27.233C5.67823 26.2155 5.74935 25.4988 5.90253 25.0502C5.95724 24.8752 6.00647 24.6727 6.00647 24.5962C6.00647 24.4156 5.7767 24.1859 5.60164 24.1859C5.09288 24.1859 4.80293 25.2472 4.80293 27.1236V28.1247H4.50205C4.33793 28.1247 4.20117 28.1083 4.20117 28.0919C4.20117 28.0098 3.80181 25.6903 3.6541 24.9244C3.56657 24.4539 3.48999 24.0491 3.48999 24.0272C3.48999 23.9999 3.62128 23.967 3.77993 23.9451C4.39264 23.874 5.7767 23.3215 5.89159 23.1027C6.03929 22.8291 5.84235 22.4353 5.56335 22.4353C5.50317 22.4353 5.19682 22.5447 4.89046 22.676C4.58958 22.8073 4.19023 22.9604 4.00969 23.0097C3.6541 23.1136 3.17816 23.1355 3.0414 23.0589C2.89369 22.9768 2.55998 22.6541 2.55998 22.5994C2.55998 22.2985 8.69254 19.6507 10.7933 19.0435L11.1215 18.9505L11.1707 19.2131C11.1981 19.3553 11.2036 19.5085 11.1926 19.5468Z"/>
</mask>
<path d="M2.99763 1.04513C1.89257 1.17643 1.45492 1.69614 1.24703 3.11303C1.1595 3.69291 1.20327 4.6448 1.32909 5.02227C1.48227 5.47086 1.65186 5.62404 2.42869 6.0234C2.84992 6.23675 3.17269 6.43916 3.23287 6.52669C3.38604 6.72911 3.41887 7.16129 3.30398 7.38558C3.24928 7.47858 2.82257 7.96 2.34663 8.44688C1.80504 9.00488 1.44397 9.42612 1.36739 9.58477C0.96803 10.4108 0.995383 11.8441 1.4385 13.5455C1.61356 14.2129 1.71203 14.3934 1.98557 14.5302C2.56545 14.8147 3.48999 14.6451 4.19023 14.1309L4.36529 13.9996V14.191C4.36529 14.6342 4.05893 15.5915 3.51734 16.8224C3.01404 17.9822 2.76239 19.1693 2.6858 20.7284L2.65298 21.456L2.27004 21.7131C1.76127 22.0468 1.65186 22.2 1.66827 22.5447C1.68468 22.9057 1.79409 23.1081 2.20439 23.5294C2.62563 23.9616 2.58733 23.8248 3.07969 26.7023C3.40793 28.6444 3.43528 28.7593 3.57205 28.8742L3.71428 29H7.77895C11.8108 29 11.8491 29 11.9913 28.8851C12.1664 28.7484 12.1773 28.5131 12.0242 28.1685C11.8764 27.8293 11.7069 27.0853 11.6467 26.5218C11.592 25.9474 11.6522 24.9846 11.7999 24.0983C12.046 22.665 12.1007 22.0085 12.1007 20.63C12.1007 19.4921 12.0789 19.1912 11.9804 18.6441C11.8327 17.8345 11.6467 17.1944 11.302 16.2917C10.8042 14.9843 10.662 14.1418 10.6565 12.5334C10.6565 11.9481 10.6948 10.9634 10.744 10.3452C10.8261 9.32765 10.848 9.21277 10.9574 9.08694C11.1981 8.82435 11.2801 8.58912 11.2747 8.18429C11.2747 7.27617 10.7112 6.57593 9.75932 6.28599C9.43655 6.18752 9.30525 6.17657 8.74725 6.2094C8.39713 6.22581 7.95948 6.25863 7.76801 6.27505C7.12248 6.34069 6.63559 6.07263 6.36753 5.51463C6.13777 5.02227 6.13777 4.96757 6.35112 4.55727C6.75595 3.79685 6.73953 3.23338 6.29641 2.35261C5.908 1.57578 5.43753 1.17643 4.7537 1.04513C4.41999 0.984955 3.52828 0.984955 2.99763 1.04513ZM4.70993 1.9259C4.82482 1.95325 5.00535 2.0572 5.10929 2.1502C5.31717 2.3362 5.70012 3.04191 5.76029 3.35373C5.80953 3.62179 5.70559 3.97191 5.45394 4.36033C5.21323 4.73233 5.20229 4.80892 5.32811 5.24657C5.53053 5.94134 5.91894 6.53763 6.36206 6.81664C6.81612 7.10658 7.23189 7.19411 7.89383 7.1394C8.19472 7.11752 8.68707 7.09564 8.98796 7.09564C9.44749 7.09017 9.57331 7.11205 9.75932 7.21052C10.0493 7.3637 10.3064 7.65911 10.3775 7.9217C10.465 8.22259 10.4541 8.2937 10.2954 8.48517C10.1751 8.62741 10.1149 8.65476 9.95079 8.63835C9.78667 8.62194 9.72102 8.57817 9.54049 8.332C9.42014 8.16788 9.26696 8.03111 9.19037 8.00923C9.00984 7.96547 8.79102 8.08582 8.69802 8.28276C8.50654 8.67665 9.26149 9.52459 9.79761 9.52459C9.87967 9.52459 9.94532 9.53006 9.94532 9.53553C9.94532 9.54647 9.90702 9.95677 9.86326 10.4546C9.81949 10.9524 9.7812 11.866 9.7812 12.4897C9.7812 14.2129 9.93985 15.1703 10.465 16.5543C10.8589 17.5992 10.9957 18.0588 10.9136 18.0861C10.8753 18.1025 10.6018 18.1846 10.3009 18.2831C9.03172 18.6824 6.21983 19.8039 4.42546 20.6245C3.96046 20.8378 3.57205 21.0129 3.55563 21.0129C3.51734 21.0129 3.59393 20.1267 3.68693 19.4538C3.81822 18.5511 3.99328 17.9275 4.37076 17.0631C5.04364 15.5095 5.20229 14.9241 5.20776 14.0214C5.21323 13.3486 5.21323 13.3486 5.35 13.3212C5.6837 13.2446 5.84782 13.1735 5.92441 13.0641C6.1323 12.7632 5.89159 12.3256 5.55241 12.3912C5.01629 12.4897 4.79746 12.4897 4.5677 12.4021C4.09175 12.2216 3.90028 11.8824 3.84558 11.133C3.79634 10.4382 3.7854 10.4054 3.57205 10.3124C3.2274 10.1701 3.00857 10.3397 2.95934 10.7938C2.88275 11.5925 3.16722 12.4514 3.66505 12.8836L3.94952 13.1297L3.70334 13.3759C3.42981 13.644 2.99216 13.8136 2.6311 13.7807C2.45057 13.7643 2.42322 13.7424 2.4068 13.6166C2.39586 13.5127 2.42869 13.4306 2.51622 13.354C2.58733 13.2938 2.70769 13.1844 2.79522 13.1078C2.98669 12.9383 2.99216 12.6866 2.80616 12.5061C2.65298 12.3474 2.51074 12.3365 2.28098 12.4568C2.18798 12.5006 2.10592 12.5334 2.09498 12.5225C2.0348 12.4623 1.94727 11.2807 1.97462 10.8704C2.02386 10.0443 2.07857 9.94583 3.01951 8.99394C3.48452 8.52894 3.92764 8.02564 4.03705 7.85058C4.21758 7.5497 4.22852 7.50046 4.23399 7.04093V6.55405L4.48564 6.4884C4.6224 6.45557 4.80293 6.38446 4.87952 6.33522C5.13664 6.16563 5.13664 5.77175 4.87952 5.60216C4.74823 5.51463 4.7154 5.51463 4.39264 5.60216C3.96046 5.71704 3.70881 5.66233 2.86086 5.24657C2.10045 4.88004 2.09498 4.87457 2.09498 3.91721C2.09498 2.86138 2.28645 2.16661 2.59827 2.03531C2.98122 1.88214 4.29964 1.81102 4.70993 1.9259ZM11.1926 19.5468C11.1762 19.5851 10.9847 19.6781 10.7659 19.7492C9.93985 20.0118 7.93213 20.9965 7.66407 21.2645C7.48354 21.4451 7.49448 21.735 7.68048 21.8827C7.76254 21.9484 7.87195 21.9976 7.92119 21.9976C7.97589 21.9976 8.54484 21.7295 9.1849 21.4068C10.1696 20.909 11.0668 20.5205 11.2364 20.5205C11.2856 20.5205 11.2254 21.839 11.1489 22.4954C11.0832 23.0425 10.8206 24.7822 10.7878 24.8916C10.7769 24.9353 10.755 24.9572 10.744 24.9463C10.7221 24.9244 10.4705 23.7318 10.4103 23.3434C10.372 23.0972 10.1696 22.8729 9.98361 22.8729C9.80308 22.8729 9.58426 23.0589 9.54596 23.234C9.51861 23.3871 9.7429 24.5962 9.93985 25.3675C10.0985 25.9802 10.4541 26.9978 10.7112 27.5722C10.8316 27.8402 10.93 28.07 10.93 28.0919C10.93 28.1083 9.74837 28.1247 8.30413 28.1247H5.67823V27.233C5.67823 26.2155 5.74935 25.4988 5.90253 25.0502C5.95724 24.8752 6.00647 24.6727 6.00647 24.5962C6.00647 24.4156 5.7767 24.1859 5.60164 24.1859C5.09288 24.1859 4.80293 25.2472 4.80293 27.1236V28.1247H4.50205C4.33793 28.1247 4.20117 28.1083 4.20117 28.0919C4.20117 28.0098 3.80181 25.6903 3.6541 24.9244C3.56657 24.4539 3.48999 24.0491 3.48999 24.0272C3.48999 23.9999 3.62128 23.967 3.77993 23.9451C4.39264 23.874 5.7767 23.3215 5.89159 23.1027C6.03929 22.8291 5.84235 22.4353 5.56335 22.4353C5.50317 22.4353 5.19682 22.5447 4.89046 22.676C4.58958 22.8073 4.19023 22.9604 4.00969 23.0097C3.6541 23.1136 3.17816 23.1355 3.0414 23.0589C2.89369 22.9768 2.55998 22.6541 2.55998 22.5994C2.55998 22.2985 8.69254 19.6507 10.7933 19.0435L11.1215 18.9505L11.1707 19.2131C11.1981 19.3553 11.2036 19.5085 11.1926 19.5468Z" fill="black"/>
<path d="M2.99763 1.04513C1.89257 1.17643 1.45492 1.69614 1.24703 3.11303C1.1595 3.69291 1.20327 4.6448 1.32909 5.02227C1.48227 5.47086 1.65186 5.62404 2.42869 6.0234C2.84992 6.23675 3.17269 6.43916 3.23287 6.52669C3.38604 6.72911 3.41887 7.16129 3.30398 7.38558C3.24928 7.47858 2.82257 7.96 2.34663 8.44688C1.80504 9.00488 1.44397 9.42612 1.36739 9.58477C0.96803 10.4108 0.995383 11.8441 1.4385 13.5455C1.61356 14.2129 1.71203 14.3934 1.98557 14.5302C2.56545 14.8147 3.48999 14.6451 4.19023 14.1309L4.36529 13.9996V14.191C4.36529 14.6342 4.05893 15.5915 3.51734 16.8224C3.01404 17.9822 2.76239 19.1693 2.6858 20.7284L2.65298 21.456L2.27004 21.7131C1.76127 22.0468 1.65186 22.2 1.66827 22.5447C1.68468 22.9057 1.79409 23.1081 2.20439 23.5294C2.62563 23.9616 2.58733 23.8248 3.07969 26.7023C3.40793 28.6444 3.43528 28.7593 3.57205 28.8742L3.71428 29H7.77895C11.8108 29 11.8491 29 11.9913 28.8851C12.1664 28.7484 12.1773 28.5131 12.0242 28.1685C11.8764 27.8293 11.7069 27.0853 11.6467 26.5218C11.592 25.9474 11.6522 24.9846 11.7999 24.0983C12.046 22.665 12.1007 22.0085 12.1007 20.63C12.1007 19.4921 12.0789 19.1912 11.9804 18.6441C11.8327 17.8345 11.6467 17.1944 11.302 16.2917C10.8042 14.9843 10.662 14.1418 10.6565 12.5334C10.6565 11.9481 10.6948 10.9634 10.744 10.3452C10.8261 9.32765 10.848 9.21277 10.9574 9.08694C11.1981 8.82435 11.2801 8.58912 11.2747 8.18429C11.2747 7.27617 10.7112 6.57593 9.75932 6.28599C9.43655 6.18752 9.30525 6.17657 8.74725 6.2094C8.39713 6.22581 7.95948 6.25863 7.76801 6.27505C7.12248 6.34069 6.63559 6.07263 6.36753 5.51463C6.13777 5.02227 6.13777 4.96757 6.35112 4.55727C6.75595 3.79685 6.73953 3.23338 6.29641 2.35261C5.908 1.57578 5.43753 1.17643 4.7537 1.04513C4.41999 0.984955 3.52828 0.984955 2.99763 1.04513ZM4.70993 1.9259C4.82482 1.95325 5.00535 2.0572 5.10929 2.1502C5.31717 2.3362 5.70012 3.04191 5.76029 3.35373C5.80953 3.62179 5.70559 3.97191 5.45394 4.36033C5.21323 4.73233 5.20229 4.80892 5.32811 5.24657C5.53053 5.94134 5.91894 6.53763 6.36206 6.81664C6.81612 7.10658 7.23189 7.19411 7.89383 7.1394C8.19472 7.11752 8.68707 7.09564 8.98796 7.09564C9.44749 7.09017 9.57331 7.11205 9.75932 7.21052C10.0493 7.3637 10.3064 7.65911 10.3775 7.9217C10.465 8.22259 10.4541 8.2937 10.2954 8.48517C10.1751 8.62741 10.1149 8.65476 9.95079 8.63835C9.78667 8.62194 9.72102 8.57817 9.54049 8.332C9.42014 8.16788 9.26696 8.03111 9.19037 8.00923C9.00984 7.96547 8.79102 8.08582 8.69802 8.28276C8.50654 8.67665 9.26149 9.52459 9.79761 9.52459C9.87967 9.52459 9.94532 9.53006 9.94532 9.53553C9.94532 9.54647 9.90702 9.95677 9.86326 10.4546C9.81949 10.9524 9.7812 11.866 9.7812 12.4897C9.7812 14.2129 9.93985 15.1703 10.465 16.5543C10.8589 17.5992 10.9957 18.0588 10.9136 18.0861C10.8753 18.1025 10.6018 18.1846 10.3009 18.2831C9.03172 18.6824 6.21983 19.8039 4.42546 20.6245C3.96046 20.8378 3.57205 21.0129 3.55563 21.0129C3.51734 21.0129 3.59393 20.1267 3.68693 19.4538C3.81822 18.5511 3.99328 17.9275 4.37076 17.0631C5.04364 15.5095 5.20229 14.9241 5.20776 14.0214C5.21323 13.3486 5.21323 13.3486 5.35 13.3212C5.6837 13.2446 5.84782 13.1735 5.92441 13.0641C6.1323 12.7632 5.89159 12.3256 5.55241 12.3912C5.01629 12.4897 4.79746 12.4897 4.5677 12.4021C4.09175 12.2216 3.90028 11.8824 3.84558 11.133C3.79634 10.4382 3.7854 10.4054 3.57205 10.3124C3.2274 10.1701 3.00857 10.3397 2.95934 10.7938C2.88275 11.5925 3.16722 12.4514 3.66505 12.8836L3.94952 13.1297L3.70334 13.3759C3.42981 13.644 2.99216 13.8136 2.6311 13.7807C2.45057 13.7643 2.42322 13.7424 2.4068 13.6166C2.39586 13.5127 2.42869 13.4306 2.51622 13.354C2.58733 13.2938 2.70769 13.1844 2.79522 13.1078C2.98669 12.9383 2.99216 12.6866 2.80616 12.5061C2.65298 12.3474 2.51074 12.3365 2.28098 12.4568C2.18798 12.5006 2.10592 12.5334 2.09498 12.5225C2.0348 12.4623 1.94727 11.2807 1.97462 10.8704C2.02386 10.0443 2.07857 9.94583 3.01951 8.99394C3.48452 8.52894 3.92764 8.02564 4.03705 7.85058C4.21758 7.5497 4.22852 7.50046 4.23399 7.04093V6.55405L4.48564 6.4884C4.6224 6.45557 4.80293 6.38446 4.87952 6.33522C5.13664 6.16563 5.13664 5.77175 4.87952 5.60216C4.74823 5.51463 4.7154 5.51463 4.39264 5.60216C3.96046 5.71704 3.70881 5.66233 2.86086 5.24657C2.10045 4.88004 2.09498 4.87457 2.09498 3.91721C2.09498 2.86138 2.28645 2.16661 2.59827 2.03531C2.98122 1.88214 4.29964 1.81102 4.70993 1.9259ZM11.1926 19.5468C11.1762 19.5851 10.9847 19.6781 10.7659 19.7492C9.93985 20.0118 7.93213 20.9965 7.66407 21.2645C7.48354 21.4451 7.49448 21.735 7.68048 21.8827C7.76254 21.9484 7.87195 21.9976 7.92119 21.9976C7.97589 21.9976 8.54484 21.7295 9.1849 21.4068C10.1696 20.909 11.0668 20.5205 11.2364 20.5205C11.2856 20.5205 11.2254 21.839 11.1489 22.4954C11.0832 23.0425 10.8206 24.7822 10.7878 24.8916C10.7769 24.9353 10.755 24.9572 10.744 24.9463C10.7221 24.9244 10.4705 23.7318 10.4103 23.3434C10.372 23.0972 10.1696 22.8729 9.98361 22.8729C9.80308 22.8729 9.58426 23.0589 9.54596 23.234C9.51861 23.3871 9.7429 24.5962 9.93985 25.3675C10.0985 25.9802 10.4541 26.9978 10.7112 27.5722C10.8316 27.8402 10.93 28.07 10.93 28.0919C10.93 28.1083 9.74837 28.1247 8.30413 28.1247H5.67823V27.233C5.67823 26.2155 5.74935 25.4988 5.90253 25.0502C5.95724 24.8752 6.00647 24.6727 6.00647 24.5962C6.00647 24.4156 5.7767 24.1859 5.60164 24.1859C5.09288 24.1859 4.80293 25.2472 4.80293 27.1236V28.1247H4.50205C4.33793 28.1247 4.20117 28.1083 4.20117 28.0919C4.20117 28.0098 3.80181 25.6903 3.6541 24.9244C3.56657 24.4539 3.48999 24.0491 3.48999 24.0272C3.48999 23.9999 3.62128 23.967 3.77993 23.9451C4.39264 23.874 5.7767 23.3215 5.89159 23.1027C6.03929 22.8291 5.84235 22.4353 5.56335 22.4353C5.50317 22.4353 5.19682 22.5447 4.89046 22.676C4.58958 22.8073 4.19023 22.9604 4.00969 23.0097C3.6541 23.1136 3.17816 23.1355 3.0414 23.0589C2.89369 22.9768 2.55998 22.6541 2.55998 22.5994C2.55998 22.2985 8.69254 19.6507 10.7933 19.0435L11.1215 18.9505L11.1707 19.2131C11.1981 19.3553 11.2036 19.5085 11.1926 19.5468Z" stroke="black" stroke-width="0.4" mask="url(#path-1-outside-1_1_2732)"/>
<path d="M8.76534 11.5127L8.76555 11.5126C8.91431 11.4221 9.0611 11.3753 9.19778 11.4021C9.33926 11.4298 9.44248 11.5305 9.51394 11.6732C9.57152 11.7856 9.60702 11.8898 9.59972 11.9967C9.59229 12.1053 9.54197 12.1996 9.46469 12.2949C9.37679 12.4075 9.21169 12.535 9.03865 12.643C8.86347 12.7523 8.66622 12.8502 8.50672 12.8974L8.50672 12.8974L8.50578 12.8977C8.22073 12.9792 7.71849 12.9951 7.37869 12.9385L7.3785 12.9385C7.12261 12.8953 6.93287 12.746 6.85642 12.5549C6.77859 12.3603 6.8252 12.1376 7.0123 11.9766C7.07981 11.9175 7.14148 11.8708 7.22784 11.853C7.3077 11.8364 7.39912 11.847 7.51937 11.8657C7.75548 11.8997 7.9918 11.8941 8.17976 11.8594C8.27387 11.842 8.3529 11.8178 8.41264 11.7895C8.47416 11.7604 8.50577 11.7315 8.51862 11.7103L8.51854 11.7103L8.52093 11.7067C8.53333 11.6881 8.5506 11.6709 8.56528 11.6574C8.58139 11.6426 8.60054 11.6269 8.62119 11.611C8.66256 11.5793 8.71339 11.5445 8.76534 11.5127Z" fill="black" stroke="black" stroke-width="0.2"/>
</svg>
