<svg width="31" height="30" viewBox="0 0 31 30" fill="none" xmlns="http://www.w3.org/2000/svg">
<circle cx="15.3125" cy="15" r="15" fill="white"/>
<path d="M22.8426 2.01185C20.5445 0.67053 18.0345 0 15.3131 0C12.5914 0 10.0815 0.67053 7.78334 2.01185C5.48518 3.35322 3.66541 5.17299 2.32435 7.47084C0.98303 9.76926 0.3125 12.2792 0.3125 15.0006C0.3125 18.0346 1.13901 20.7886 2.79295 23.2624C4.44659 25.7369 6.61447 27.5661 9.29716 28.7508C9.24484 27.3575 9.32953 26.2054 9.55109 25.2939L11.4847 17.1295C11.1591 16.4916 10.9964 15.6974 10.9964 14.7466C10.9964 13.6399 11.2764 12.7151 11.8363 11.9732C12.3958 11.2308 13.0797 10.8595 13.8871 10.8595C14.538 10.8595 15.0395 11.0741 15.3911 11.5043C15.7427 11.9339 15.9187 12.4744 15.9187 13.1253C15.9187 13.5292 15.8435 14.0209 15.6942 14.6001C15.5442 15.1797 15.3489 15.8501 15.1083 16.612C14.8674 17.3735 14.6949 17.9822 14.5906 18.4381C14.408 19.2323 14.5579 19.9126 15.0398 20.4791C15.5213 21.0457 16.1596 21.3287 16.954 21.3287C18.3474 21.3287 19.49 20.5542 20.3821 19.0046C21.274 17.455 21.7199 15.5734 21.7199 13.3595C21.7199 11.6539 21.17 10.2669 20.0696 9.19917C18.9692 8.13173 17.4356 7.59754 15.4698 7.59754C13.2689 7.59754 11.4881 8.30423 10.1278 9.71657C8.76706 11.1296 8.08669 12.8193 8.08669 14.7849C8.08669 15.9569 8.41895 16.9404 9.0828 17.7346C9.3041 17.9951 9.37574 18.2748 9.29773 18.5741C9.27141 18.6524 9.21945 18.8476 9.14144 19.1599C9.06348 19.4722 9.01116 19.6745 8.98515 19.7654C8.88082 20.1824 8.63357 20.3126 8.24267 20.156C7.23993 19.7394 6.47807 19.0169 5.95751 17.9881C5.43664 16.9596 5.17633 15.7683 5.17633 14.414C5.17633 13.5415 5.31614 12.669 5.59608 11.7965C5.87602 10.9241 6.31194 10.0811 6.90482 9.26693C7.49702 8.45373 8.20687 7.73379 9.034 7.10889C9.86082 6.48369 10.8668 5.98281 12.0518 5.60455C13.2366 5.22727 14.5129 5.03835 15.8802 5.03835C17.7292 5.03835 19.3895 5.44857 20.8608 6.26871C22.3321 7.08921 23.4554 8.15064 24.2302 9.45264C25.0047 10.7547 25.3924 12.1477 25.3924 13.6327C25.3924 15.5859 25.0536 17.3439 24.3767 18.9065C23.6996 20.4692 22.7424 21.6963 21.5053 22.5882C20.2679 23.48 18.8616 23.9261 17.2863 23.9261C16.4918 23.9261 15.7496 23.7406 15.0595 23.3693C14.369 22.9981 13.8938 22.5587 13.6335 22.0508C13.0476 24.3553 12.696 25.7297 12.5787 26.1719C12.3311 27.0967 11.8232 28.1641 11.0551 29.3752C12.4484 29.7918 13.8677 30 15.3131 30C18.0345 30 20.5445 29.3295 22.8426 27.9885C25.1407 26.6471 26.9605 24.8274 28.3019 22.5289C29.6429 20.2307 30.3138 17.7211 30.3138 14.9993C30.3138 12.2776 29.6429 9.76806 28.3019 7.46959C26.9608 5.17299 25.1407 3.35322 22.8426 2.01185Z" fill="#FA0000"/>
</svg>
