<svg width="21" height="27" viewBox="0 0 21 27" fill="none" xmlns="http://www.w3.org/2000/svg">
<path d="M15.0625 9.4375H17.4062C18.0279 9.4375 18.624 9.68443 19.0635 10.124C19.5031 10.5635 19.75 11.1596 19.75 11.7812V23.0312C19.75 23.6529 19.5031 24.249 19.0635 24.6885C18.624 25.1281 18.0279 25.375 17.4062 25.375H3.34375C2.72215 25.375 2.12601 25.1281 1.68647 24.6885C1.24693 24.249 1 23.6529 1 23.0312V11.7812C1 11.1596 1.24693 10.5635 1.68647 10.124C2.12601 9.68443 2.72215 9.4375 3.34375 9.4375H5.6875M15.0625 5.6875L10.375 1M10.375 1L5.6875 5.6875M10.375 1V16.9961" stroke="black" stroke-width="1.875" stroke-linecap="round" stroke-linejoin="round"/>
</svg>
