<svg width="23" height="26" viewBox="0 0 23 26" fill="none" xmlns="http://www.w3.org/2000/svg">
<path d="M3.8125 15.543C5.3658 15.543 6.625 14.2838 6.625 12.7305C6.625 11.1772 5.3658 9.91797 3.8125 9.91797C2.2592 9.91797 1 11.1772 1 12.7305C1 14.2838 2.2592 15.543 3.8125 15.543Z" stroke="black" stroke-width="1.875" stroke-linecap="round" stroke-linejoin="round"/>
<path d="M18.8125 7.375C20.3658 7.375 21.625 6.1158 21.625 4.5625C21.625 3.0092 20.3658 1.75 18.8125 1.75C17.2592 1.75 16 3.0092 16 4.5625C16 6.1158 17.2592 7.375 18.8125 7.375Z" stroke="black" stroke-width="1.875" stroke-linecap="round" stroke-linejoin="round"/>
<path d="M18.8125 24.25C20.3658 24.25 21.625 22.9908 21.625 21.4375C21.625 19.8842 20.3658 18.625 18.8125 18.625C17.2592 18.625 16 19.8842 16 21.4375C16 22.9908 17.2592 24.25 18.8125 24.25Z" stroke="black" stroke-width="1.875" stroke-linecap="round" stroke-linejoin="round"/>
<path d="M6.26392 14.1094L16.362 19.7895M16.362 5.67188L6.26392 11.352" stroke="black" stroke-width="1.875" stroke-linecap="round" stroke-linejoin="round"/>
</svg>
