<svg width="31" height="30" viewBox="0 0 31 30" fill="none" xmlns="http://www.w3.org/2000/svg">
<path d="M14.6409 0.00484848C13.9363 0.0486107 13.5486 0.0882053 13.0045 0.17156C9.86511 0.655025 6.96129 2.13251 4.70786 4.38938C2.44192 6.65666 0.972294 9.54495 0.488671 12.6833C0.376104 13.4148 0.332328 13.9211 0.315651 14.6943C0.253114 17.7784 1.12238 20.7605 2.83174 23.3216C4.06998 25.1742 5.70846 26.735 7.62002 27.8812C9.67958 29.1149 11.9351 29.813 14.4012 29.9797C14.7951 30.0068 15.8437 30.0068 16.2669 29.9797C18.2972 29.8505 20.2317 29.3316 22.0307 28.4334C23.1355 27.8812 24.0257 27.2956 25.0117 26.4683C26.35 25.3472 27.5361 23.9134 28.4158 22.3484C28.6013 22.0213 28.987 21.2398 29.1287 20.9043C29.654 19.6685 30.0126 18.364 30.1918 17.0532C30.2961 16.2718 30.3148 15.9654 30.3148 14.9964C30.3148 14.0295 30.2982 13.7628 30.1898 12.9605C29.6186 8.72389 27.2234 4.90202 23.6463 2.51387C21.4929 1.07806 19.1144 0.257 16.4649 0.0340233C16.2022 0.0111008 14.8744 -0.00973892 14.6409 0.00484848ZM18.5224 5.85853C18.8309 8.06329 20.6007 9.81169 22.8229 10.1118C22.9438 10.1264 23.0584 10.1409 23.0793 10.1409C23.1126 10.1409 23.1147 10.2285 23.1147 11.7018V13.2605L23.0188 13.2751C22.8458 13.2981 22.3601 13.2876 22.0849 13.2564C20.6862 13.0917 19.4271 12.3645 18.6162 11.2517C18.539 11.1454 18.4703 11.0599 18.4619 11.0579C18.4536 11.0579 18.4432 12.9271 18.439 15.209C18.4327 19.8144 18.4432 19.4476 18.2952 20.0707C18.1096 20.8564 17.7094 21.6753 17.2028 22.3109C16.986 22.5818 16.4837 23.0715 16.2043 23.282C14.8076 24.3302 13.0983 24.6887 11.3994 24.2906C10.6343 24.1093 9.81508 23.7071 9.16886 23.1924C8.92496 22.9944 8.49554 22.5693 8.30584 22.3318C7.595 21.4419 7.16766 20.3875 7.06135 19.2622C7.03217 18.935 7.04676 18.2411 7.09262 17.9389C7.24896 16.9011 7.68672 15.9092 8.3392 15.1173C8.69775 14.6838 9.21472 14.2275 9.69417 13.9211C9.96309 13.7482 10.503 13.4835 10.8073 13.3752C11.0742 13.2793 11.5286 13.1605 11.8163 13.1126C12.2186 13.048 12.7731 13.0188 13.0128 13.0501L13.1087 13.0647L13.1045 14.463L13.0983 15.8613L12.9941 15.8508C12.7689 15.8279 12.3895 15.8467 12.1769 15.8904C11.1721 16.0988 10.3737 16.7823 10.0089 17.7472C9.84843 18.1702 9.79423 18.7537 9.87345 19.2163C9.92973 19.5414 9.99644 19.7436 10.1486 20.0499C10.6718 21.1043 11.8267 21.7524 12.9899 21.6441C13.7758 21.5691 14.3907 21.2836 14.9327 20.7397C15.3601 20.3125 15.5894 19.8978 15.7269 19.3101C15.7603 19.1663 15.7645 18.8892 15.777 15.8404C15.7853 14.017 15.7937 10.9891 15.7957 9.10733C15.7957 7.22765 15.8041 5.68139 15.8124 5.67514C15.8187 5.66681 16.4274 5.66264 17.1611 5.66472L18.4953 5.67098L18.5224 5.85853Z" fill="black"/>
</svg>
