<svg width="27" height="27" viewBox="0 0 27 27" fill="none" xmlns="http://www.w3.org/2000/svg">
<path fill-rule="evenodd" clip-rule="evenodd" d="M22.4256 3.81451C21.2121 2.60049 19.7706 1.63847 18.1838 0.983821C16.5971 0.329176 14.8965 -0.00516001 13.1801 6.0199e-05C5.97656 6.0199e-05 0.1125 5.83483 0.10957 13.0079C0.106384 15.2919 0.708454 17.536 1.85449 19.5118L0 26.2501L6.92871 24.4413C8.84661 25.4803 10.9936 26.0241 13.1748 26.0233H13.1801C20.383 26.0233 26.2465 20.188 26.25 13.0155C26.2544 11.3049 25.9185 9.61048 25.2619 8.03088C24.6054 6.45128 23.6412 5.01803 22.4256 3.81451ZM13.1801 23.8278H13.1754C11.2309 23.8284 9.32174 23.308 7.64648 22.3208L7.2498 22.0864L3.13828 23.1598L4.23574 19.1702L3.97734 18.76C2.89007 17.0386 2.31401 15.0439 2.31621 13.0079C2.31621 7.04713 7.1918 2.19733 13.1842 2.19733C16.0588 2.19219 18.8177 3.32908 20.8542 5.35794C22.8906 7.3868 24.0378 10.1415 24.0434 13.0161C24.041 18.9774 19.1678 23.8278 13.1801 23.8278ZM19.1385 15.7307C18.8121 15.5678 17.2049 14.7815 16.9072 14.6731C16.6096 14.5647 16.3898 14.5102 16.1725 14.836C15.9551 15.1618 15.3287 15.8907 15.1383 16.1104C14.9479 16.3301 14.7574 16.3542 14.4311 16.1913C14.1047 16.0284 13.0518 15.6856 11.8043 14.5782C10.8334 13.7163 10.1783 12.6522 9.98789 12.327C9.79746 12.0018 9.96738 11.8255 10.1309 11.6637C10.2779 11.5178 10.4572 11.284 10.6207 11.0942C10.7842 10.9044 10.8387 10.7684 10.9471 10.5516C11.0555 10.3348 11.0016 10.145 10.9201 9.98268C10.8387 9.82037 10.1854 8.22018 9.91348 7.5692C9.64805 6.93522 9.3791 7.02135 9.17871 7.01139C8.98828 7.00201 8.76855 6.99967 8.55234 6.99967C8.38706 7.00397 8.22443 7.0423 8.07462 7.11227C7.92481 7.18223 7.79103 7.28233 7.68164 7.40631C7.38223 7.73209 6.53848 8.51959 6.53848 10.118C6.53848 11.7165 7.71035 13.2633 7.87207 13.4801C8.03379 13.6969 10.1748 16.9799 13.4508 18.388C14.0591 18.6485 14.6807 18.8769 15.3129 19.0723C16.0951 19.3196 16.807 19.285 17.3695 19.2012C17.9971 19.1081 19.3031 18.4149 19.5744 17.6555C19.8457 16.8962 19.8463 16.2458 19.7648 16.1104C19.6834 15.9751 19.4654 15.893 19.1385 15.7307Z" fill="black"/>
</svg>
