<svg width="31" height="30" viewBox="0 0 31 30" fill="none" xmlns="http://www.w3.org/2000/svg">
<circle cx="15.3164" cy="15" r="15" fill="#FF0000"/>
<path d="M23.9455 10.972C23.7381 10.2009 23.1301 9.59304 22.3591 9.3854C20.9506 9 15.3162 9 15.3162 9C15.3162 9 9.68207 9 8.27351 9.37079C7.51732 9.57821 6.89451 10.201 6.68709 10.972C6.31641 12.3805 6.31641 15.3014 6.31641 15.3014C6.31641 15.3014 6.31641 18.2371 6.68709 19.6308C6.89473 20.4019 7.50249 21.0097 8.27362 21.2174C9.69691 21.6029 15.3164 21.6029 15.3164 21.6029C15.3164 21.6029 20.9506 21.6029 22.3591 21.2321C23.1302 21.0246 23.7381 20.4167 23.9458 19.6457C24.3163 18.2371 24.3163 15.3163 24.3163 15.3163C24.3163 15.3163 24.3312 12.3805 23.9455 10.972ZM13.5224 17.9999V12.603L18.2076 15.3014L13.5224 17.9999Z" fill="white"/>
</svg>
