<svg width="33" height="32" viewBox="0 0 33 32" fill="none" xmlns="http://www.w3.org/2000/svg">
<path d="M13.953 4C12.0034 4 10.0976 4.57582 8.47659 5.65465C6.85557 6.73348 5.59213 8.26686 4.84605 10.0609C4.09997 11.8549 3.90477 13.829 4.28511 15.7335C4.66546 17.6381 5.60428 19.3875 6.98285 20.7606C8.36142 22.1337 10.1178 23.0688 12.03 23.4476C13.9421 23.8264 15.9241 23.632 17.7253 22.8889C19.5264 22.1458 21.066 20.8874 22.1491 19.2728C23.2322 17.6582 23.8103 15.76 23.8103 13.8181C23.8102 11.2142 22.7716 8.71707 20.923 6.87585C19.0744 5.03463 16.5673 4.00017 13.953 4V4Z" stroke="#222222" stroke-width="2.16" stroke-miterlimit="10"/>
<path d="M21.3076 21.1431L28.1919 28" stroke="#222222" stroke-width="2.16" stroke-miterlimit="10" stroke-linecap="round"/>
</svg>
