<svg width="30" height="30" viewBox="0 0 30 30" fill="none" xmlns="http://www.w3.org/2000/svg">
<path d="M27.5219 13.7461C27.0924 13.176 25.4969 12.7834 24.8219 11.7574C24.1469 10.7314 23.5944 8.50957 21.8764 7.65586C20.1584 6.80215 16.8749 6.5625 14.9999 6.5625C13.1249 6.5625 9.8436 6.79688 8.12329 7.6541C6.40298 8.51133 5.85278 10.7314 5.17778 11.7557C4.50278 12.7799 2.90728 13.176 2.47778 13.7461C2.04829 14.3162 1.74595 17.9203 1.92993 19.6875C2.11392 21.4547 2.45727 22.5 2.45727 22.5H7.49634C8.32134 22.5 8.5897 22.19 10.2772 22.0312C12.1288 21.8555 13.9452 21.7969 14.9999 21.7969C16.0545 21.7969 17.9295 21.8555 19.7799 22.0312C21.4674 22.1912 21.7446 22.5 22.5608 22.5H27.5413C27.5413 22.5 27.8846 21.4547 28.0686 19.6875C28.2526 17.9203 27.9491 14.3162 27.5219 13.7461ZM23.4374 22.5H26.7186V23.4375H23.4374V22.5ZM3.2811 22.5H6.56235V23.4375H3.2811V22.5Z" stroke="black" stroke-width="1.875" stroke-linecap="round" stroke-linejoin="round"/>
<path d="M21.3558 18.1148C21.0095 17.7146 19.881 17.3807 18.3869 17.1568C16.8927 16.933 16.3478 16.875 15.0119 16.875C13.6759 16.875 13.0683 16.9711 11.6363 17.1568C10.2043 17.3426 9.12906 17.673 8.66792 18.1148C7.97593 18.7852 8.9896 19.5375 9.78531 19.6289C10.5564 19.7168 12.098 19.6846 15.0183 19.6846C17.9386 19.6846 19.4802 19.7168 20.2513 19.6289C21.0459 19.5322 21.9869 18.832 21.3558 18.1148ZM25.2875 14.2412C25.2842 14.1947 25.2638 14.151 25.2303 14.1186C25.1968 14.0861 25.1524 14.0672 25.1058 14.0654C24.4138 14.0408 23.7113 14.09 22.465 14.4574C21.8292 14.643 21.2321 14.942 20.7025 15.3398C20.5689 15.4441 20.6164 15.726 20.7839 15.7559C21.8112 15.8763 22.8446 15.937 23.8789 15.9375C24.4994 15.9375 25.1398 15.7617 25.2587 15.2086C25.3194 14.8897 25.3291 14.5632 25.2875 14.2412ZM4.71285 14.2412C4.71613 14.1947 4.73649 14.151 4.77002 14.1186C4.80354 14.0861 4.84787 14.0672 4.89449 14.0654C5.58648 14.0408 6.28902 14.09 7.53531 14.4574C8.17114 14.643 8.76823 14.942 9.29781 15.3398C9.4314 15.4441 9.38394 15.726 9.21636 15.7559C8.18911 15.8763 7.15573 15.937 6.12144 15.9375C5.50093 15.9375 4.8605 15.7617 4.74156 15.2086C4.68091 14.8897 4.67122 14.5632 4.71285 14.2412Z" fill="black"/>
<path d="M25.3125 11.25H26.25M3.75 11.25H4.6875M4.57031 12.3633C4.57031 12.3633 7.28613 11.6602 15 11.6602C22.7139 11.6602 25.4297 12.3633 25.4297 12.3633" stroke="black" stroke-width="1.875" stroke-linecap="round" stroke-linejoin="round"/>
</svg>
