<svg width="30" height="30" viewBox="0 0 30 30" fill="none" xmlns="http://www.w3.org/2000/svg">
<mask id="path-1-outside-1_280_9" maskUnits="userSpaceOnUse" x="8.08594" y="0" width="13" height="30" fill="black">
<rect fill="white" x="8.08594" width="13" height="30"/>
<path d="M10.9976 1.04513C9.89257 1.17643 9.45492 1.69614 9.24703 3.11303C9.1595 3.69291 9.20327 4.6448 9.32909 5.02227C9.48227 5.47086 9.65186 5.62404 10.4287 6.0234C10.8499 6.23675 11.1727 6.43916 11.2329 6.52669C11.386 6.72911 11.4189 7.16129 11.304 7.38558C11.2493 7.47858 10.8226 7.96 10.3466 8.44688C9.80504 9.00488 9.44397 9.42612 9.36739 9.58477C8.96803 10.4108 8.99538 11.8441 9.4385 13.5455C9.61356 14.2129 9.71203 14.3934 9.98557 14.5302C10.5655 14.8147 11.49 14.6451 12.1902 14.1309L12.3653 13.9996V14.191C12.3653 14.6342 12.0589 15.5915 11.5173 16.8224C11.014 17.9822 10.7624 19.1693 10.6858 20.7284L10.653 21.456L10.27 21.7131C9.76127 22.0468 9.65186 22.2 9.66827 22.5447C9.68468 22.9057 9.79409 23.1081 10.2044 23.5294C10.6256 23.9616 10.5873 23.8248 11.0797 26.7023C11.4079 28.6444 11.4353 28.7593 11.572 28.8742L11.7143 29H15.779C19.8108 29 19.8491 29 19.9913 28.8851C20.1664 28.7484 20.1773 28.5131 20.0242 28.1685C19.8764 27.8293 19.7069 27.0853 19.6467 26.5218C19.592 25.9474 19.6522 24.9846 19.7999 24.0983C20.046 22.665 20.1007 22.0085 20.1007 20.63C20.1007 19.4921 20.0789 19.1912 19.9804 18.6441C19.8327 17.8345 19.6467 17.1944 19.302 16.2917C18.8042 14.9843 18.662 14.1418 18.6565 12.5334C18.6565 11.9481 18.6948 10.9634 18.744 10.3452C18.8261 9.32765 18.848 9.21277 18.9574 9.08694C19.1981 8.82435 19.2801 8.58912 19.2747 8.18429C19.2747 7.27617 18.7112 6.57593 17.7593 6.28599C17.4365 6.18752 17.3053 6.17657 16.7473 6.2094C16.3971 6.22581 15.9595 6.25863 15.768 6.27505C15.1225 6.34069 14.6356 6.07263 14.3675 5.51463C14.1378 5.02227 14.1378 4.96757 14.3511 4.55727C14.7559 3.79685 14.7395 3.23338 14.2964 2.35261C13.908 1.57578 13.4375 1.17643 12.7537 1.04513C12.42 0.984955 11.5283 0.984955 10.9976 1.04513ZM12.7099 1.9259C12.8248 1.95325 13.0053 2.0572 13.1093 2.1502C13.3172 2.3362 13.7001 3.04191 13.7603 3.35373C13.8095 3.62179 13.7056 3.97191 13.4539 4.36033C13.2132 4.73233 13.2023 4.80892 13.3281 5.24657C13.5305 5.94134 13.9189 6.53763 14.3621 6.81664C14.8161 7.10658 15.2319 7.19411 15.8938 7.1394C16.1947 7.11752 16.6871 7.09564 16.988 7.09564C17.4475 7.09017 17.5733 7.11205 17.7593 7.21052C18.0493 7.3637 18.3064 7.65911 18.3775 7.9217C18.465 8.22259 18.4541 8.2937 18.2954 8.48517C18.1751 8.62741 18.1149 8.65476 17.9508 8.63835C17.7867 8.62194 17.721 8.57817 17.5405 8.332C17.4201 8.16788 17.267 8.03111 17.1904 8.00923C17.0098 7.96547 16.791 8.08582 16.698 8.28276C16.5065 8.67665 17.2615 9.52459 17.7976 9.52459C17.8797 9.52459 17.9453 9.53006 17.9453 9.53553C17.9453 9.54647 17.907 9.95677 17.8633 10.4546C17.8195 10.9524 17.7812 11.866 17.7812 12.4897C17.7812 14.2129 17.9398 15.1703 18.465 16.5543C18.8589 17.5992 18.9957 18.0588 18.9136 18.0861C18.8753 18.1025 18.6018 18.1846 18.3009 18.2831C17.0317 18.6824 14.2198 19.8039 12.4255 20.6245C11.9605 20.8378 11.572 21.0129 11.5556 21.0129C11.5173 21.0129 11.5939 20.1267 11.6869 19.4538C11.8182 18.5511 11.9933 17.9275 12.3708 17.0631C13.0436 15.5095 13.2023 14.9241 13.2078 14.0214C13.2132 13.3486 13.2132 13.3486 13.35 13.3212C13.6837 13.2446 13.8478 13.1735 13.9244 13.0641C14.1323 12.7632 13.8916 12.3256 13.5524 12.3912C13.0163 12.4897 12.7975 12.4897 12.5677 12.4021C12.0918 12.2216 11.9003 11.8824 11.8456 11.133C11.7963 10.4382 11.7854 10.4054 11.572 10.3124C11.2274 10.1701 11.0086 10.3397 10.9593 10.7938C10.8827 11.5925 11.1672 12.4514 11.665 12.8836L11.9495 13.1297L11.7033 13.3759C11.4298 13.644 10.9922 13.8136 10.6311 13.7807C10.4506 13.7643 10.4232 13.7424 10.4068 13.6166C10.3959 13.5127 10.4287 13.4306 10.5162 13.354C10.5873 13.2938 10.7077 13.1844 10.7952 13.1078C10.9867 12.9383 10.9922 12.6866 10.8062 12.5061C10.653 12.3474 10.5107 12.3365 10.281 12.4568C10.188 12.5006 10.1059 12.5334 10.095 12.5225C10.0348 12.4623 9.94727 11.2807 9.97462 10.8704C10.0239 10.0443 10.0786 9.94583 11.0195 8.99394C11.4845 8.52894 11.9276 8.02564 12.037 7.85058C12.2176 7.5497 12.2285 7.50046 12.234 7.04093V6.55405L12.4856 6.4884C12.6224 6.45557 12.8029 6.38446 12.8795 6.33522C13.1366 6.16563 13.1366 5.77175 12.8795 5.60216C12.7482 5.51463 12.7154 5.51463 12.3926 5.60216C11.9605 5.71704 11.7088 5.66233 10.8609 5.24657C10.1004 4.88004 10.095 4.87457 10.095 3.91721C10.095 2.86138 10.2864 2.16661 10.5983 2.03531C10.9812 1.88214 12.2996 1.81102 12.7099 1.9259ZM19.1926 19.5468C19.1762 19.5851 18.9847 19.6781 18.7659 19.7492C17.9398 20.0118 15.9321 20.9965 15.6641 21.2645C15.4835 21.4451 15.4945 21.735 15.6805 21.8827C15.7625 21.9484 15.872 21.9976 15.9212 21.9976C15.9759 21.9976 16.5448 21.7295 17.1849 21.4068C18.1696 20.909 19.0668 20.5205 19.2364 20.5205C19.2856 20.5205 19.2254 21.839 19.1489 22.4954C19.0832 23.0425 18.8206 24.7822 18.7878 24.8916C18.7769 24.9353 18.755 24.9572 18.744 24.9463C18.7221 24.9244 18.4705 23.7318 18.4103 23.3434C18.372 23.0972 18.1696 22.8729 17.9836 22.8729C17.8031 22.8729 17.5843 23.0589 17.546 23.234C17.5186 23.3871 17.7429 24.5962 17.9398 25.3675C18.0985 25.9802 18.4541 26.9978 18.7112 27.5722C18.8316 27.8402 18.93 28.07 18.93 28.0919C18.93 28.1083 17.7484 28.1247 16.3041 28.1247H13.6782V27.233C13.6782 26.2155 13.7494 25.4988 13.9025 25.0502C13.9572 24.8752 14.0065 24.6727 14.0065 24.5962C14.0065 24.4156 13.7767 24.1859 13.6016 24.1859C13.0929 24.1859 12.8029 25.2472 12.8029 27.1236V28.1247H12.5021C12.3379 28.1247 12.2012 28.1083 12.2012 28.0919C12.2012 28.0098 11.8018 25.6903 11.6541 24.9244C11.5666 24.4539 11.49 24.0491 11.49 24.0272C11.49 23.9999 11.6213 23.967 11.7799 23.9451C12.3926 23.874 13.7767 23.3215 13.8916 23.1027C14.0393 22.8291 13.8424 22.4353 13.5634 22.4353C13.5032 22.4353 13.1968 22.5447 12.8905 22.676C12.5896 22.8073 12.1902 22.9604 12.0097 23.0097C11.6541 23.1136 11.1782 23.1355 11.0414 23.0589C10.8937 22.9768 10.56 22.6541 10.56 22.5994C10.56 22.2985 16.6925 19.6507 18.7933 19.0435L19.1215 18.9505L19.1707 19.2131C19.1981 19.3553 19.2036 19.5085 19.1926 19.5468Z"/>
</mask>
<path d="M10.9976 1.04513C9.89257 1.17643 9.45492 1.69614 9.24703 3.11303C9.1595 3.69291 9.20327 4.6448 9.32909 5.02227C9.48227 5.47086 9.65186 5.62404 10.4287 6.0234C10.8499 6.23675 11.1727 6.43916 11.2329 6.52669C11.386 6.72911 11.4189 7.16129 11.304 7.38558C11.2493 7.47858 10.8226 7.96 10.3466 8.44688C9.80504 9.00488 9.44397 9.42612 9.36739 9.58477C8.96803 10.4108 8.99538 11.8441 9.4385 13.5455C9.61356 14.2129 9.71203 14.3934 9.98557 14.5302C10.5655 14.8147 11.49 14.6451 12.1902 14.1309L12.3653 13.9996V14.191C12.3653 14.6342 12.0589 15.5915 11.5173 16.8224C11.014 17.9822 10.7624 19.1693 10.6858 20.7284L10.653 21.456L10.27 21.7131C9.76127 22.0468 9.65186 22.2 9.66827 22.5447C9.68468 22.9057 9.79409 23.1081 10.2044 23.5294C10.6256 23.9616 10.5873 23.8248 11.0797 26.7023C11.4079 28.6444 11.4353 28.7593 11.572 28.8742L11.7143 29H15.779C19.8108 29 19.8491 29 19.9913 28.8851C20.1664 28.7484 20.1773 28.5131 20.0242 28.1685C19.8764 27.8293 19.7069 27.0853 19.6467 26.5218C19.592 25.9474 19.6522 24.9846 19.7999 24.0983C20.046 22.665 20.1007 22.0085 20.1007 20.63C20.1007 19.4921 20.0789 19.1912 19.9804 18.6441C19.8327 17.8345 19.6467 17.1944 19.302 16.2917C18.8042 14.9843 18.662 14.1418 18.6565 12.5334C18.6565 11.9481 18.6948 10.9634 18.744 10.3452C18.8261 9.32765 18.848 9.21277 18.9574 9.08694C19.1981 8.82435 19.2801 8.58912 19.2747 8.18429C19.2747 7.27617 18.7112 6.57593 17.7593 6.28599C17.4365 6.18752 17.3053 6.17657 16.7473 6.2094C16.3971 6.22581 15.9595 6.25863 15.768 6.27505C15.1225 6.34069 14.6356 6.07263 14.3675 5.51463C14.1378 5.02227 14.1378 4.96757 14.3511 4.55727C14.7559 3.79685 14.7395 3.23338 14.2964 2.35261C13.908 1.57578 13.4375 1.17643 12.7537 1.04513C12.42 0.984955 11.5283 0.984955 10.9976 1.04513ZM12.7099 1.9259C12.8248 1.95325 13.0053 2.0572 13.1093 2.1502C13.3172 2.3362 13.7001 3.04191 13.7603 3.35373C13.8095 3.62179 13.7056 3.97191 13.4539 4.36033C13.2132 4.73233 13.2023 4.80892 13.3281 5.24657C13.5305 5.94134 13.9189 6.53763 14.3621 6.81664C14.8161 7.10658 15.2319 7.19411 15.8938 7.1394C16.1947 7.11752 16.6871 7.09564 16.988 7.09564C17.4475 7.09017 17.5733 7.11205 17.7593 7.21052C18.0493 7.3637 18.3064 7.65911 18.3775 7.9217C18.465 8.22259 18.4541 8.2937 18.2954 8.48517C18.1751 8.62741 18.1149 8.65476 17.9508 8.63835C17.7867 8.62194 17.721 8.57817 17.5405 8.332C17.4201 8.16788 17.267 8.03111 17.1904 8.00923C17.0098 7.96547 16.791 8.08582 16.698 8.28276C16.5065 8.67665 17.2615 9.52459 17.7976 9.52459C17.8797 9.52459 17.9453 9.53006 17.9453 9.53553C17.9453 9.54647 17.907 9.95677 17.8633 10.4546C17.8195 10.9524 17.7812 11.866 17.7812 12.4897C17.7812 14.2129 17.9398 15.1703 18.465 16.5543C18.8589 17.5992 18.9957 18.0588 18.9136 18.0861C18.8753 18.1025 18.6018 18.1846 18.3009 18.2831C17.0317 18.6824 14.2198 19.8039 12.4255 20.6245C11.9605 20.8378 11.572 21.0129 11.5556 21.0129C11.5173 21.0129 11.5939 20.1267 11.6869 19.4538C11.8182 18.5511 11.9933 17.9275 12.3708 17.0631C13.0436 15.5095 13.2023 14.9241 13.2078 14.0214C13.2132 13.3486 13.2132 13.3486 13.35 13.3212C13.6837 13.2446 13.8478 13.1735 13.9244 13.0641C14.1323 12.7632 13.8916 12.3256 13.5524 12.3912C13.0163 12.4897 12.7975 12.4897 12.5677 12.4021C12.0918 12.2216 11.9003 11.8824 11.8456 11.133C11.7963 10.4382 11.7854 10.4054 11.572 10.3124C11.2274 10.1701 11.0086 10.3397 10.9593 10.7938C10.8827 11.5925 11.1672 12.4514 11.665 12.8836L11.9495 13.1297L11.7033 13.3759C11.4298 13.644 10.9922 13.8136 10.6311 13.7807C10.4506 13.7643 10.4232 13.7424 10.4068 13.6166C10.3959 13.5127 10.4287 13.4306 10.5162 13.354C10.5873 13.2938 10.7077 13.1844 10.7952 13.1078C10.9867 12.9383 10.9922 12.6866 10.8062 12.5061C10.653 12.3474 10.5107 12.3365 10.281 12.4568C10.188 12.5006 10.1059 12.5334 10.095 12.5225C10.0348 12.4623 9.94727 11.2807 9.97462 10.8704C10.0239 10.0443 10.0786 9.94583 11.0195 8.99394C11.4845 8.52894 11.9276 8.02564 12.037 7.85058C12.2176 7.5497 12.2285 7.50046 12.234 7.04093V6.55405L12.4856 6.4884C12.6224 6.45557 12.8029 6.38446 12.8795 6.33522C13.1366 6.16563 13.1366 5.77175 12.8795 5.60216C12.7482 5.51463 12.7154 5.51463 12.3926 5.60216C11.9605 5.71704 11.7088 5.66233 10.8609 5.24657C10.1004 4.88004 10.095 4.87457 10.095 3.91721C10.095 2.86138 10.2864 2.16661 10.5983 2.03531C10.9812 1.88214 12.2996 1.81102 12.7099 1.9259ZM19.1926 19.5468C19.1762 19.5851 18.9847 19.6781 18.7659 19.7492C17.9398 20.0118 15.9321 20.9965 15.6641 21.2645C15.4835 21.4451 15.4945 21.735 15.6805 21.8827C15.7625 21.9484 15.872 21.9976 15.9212 21.9976C15.9759 21.9976 16.5448 21.7295 17.1849 21.4068C18.1696 20.909 19.0668 20.5205 19.2364 20.5205C19.2856 20.5205 19.2254 21.839 19.1489 22.4954C19.0832 23.0425 18.8206 24.7822 18.7878 24.8916C18.7769 24.9353 18.755 24.9572 18.744 24.9463C18.7221 24.9244 18.4705 23.7318 18.4103 23.3434C18.372 23.0972 18.1696 22.8729 17.9836 22.8729C17.8031 22.8729 17.5843 23.0589 17.546 23.234C17.5186 23.3871 17.7429 24.5962 17.9398 25.3675C18.0985 25.9802 18.4541 26.9978 18.7112 27.5722C18.8316 27.8402 18.93 28.07 18.93 28.0919C18.93 28.1083 17.7484 28.1247 16.3041 28.1247H13.6782V27.233C13.6782 26.2155 13.7494 25.4988 13.9025 25.0502C13.9572 24.8752 14.0065 24.6727 14.0065 24.5962C14.0065 24.4156 13.7767 24.1859 13.6016 24.1859C13.0929 24.1859 12.8029 25.2472 12.8029 27.1236V28.1247H12.5021C12.3379 28.1247 12.2012 28.1083 12.2012 28.0919C12.2012 28.0098 11.8018 25.6903 11.6541 24.9244C11.5666 24.4539 11.49 24.0491 11.49 24.0272C11.49 23.9999 11.6213 23.967 11.7799 23.9451C12.3926 23.874 13.7767 23.3215 13.8916 23.1027C14.0393 22.8291 13.8424 22.4353 13.5634 22.4353C13.5032 22.4353 13.1968 22.5447 12.8905 22.676C12.5896 22.8073 12.1902 22.9604 12.0097 23.0097C11.6541 23.1136 11.1782 23.1355 11.0414 23.0589C10.8937 22.9768 10.56 22.6541 10.56 22.5994C10.56 22.2985 16.6925 19.6507 18.7933 19.0435L19.1215 18.9505L19.1707 19.2131C19.1981 19.3553 19.2036 19.5085 19.1926 19.5468Z" fill="#717171"/>
<path d="M10.9976 1.04513C9.89257 1.17643 9.45492 1.69614 9.24703 3.11303C9.1595 3.69291 9.20327 4.6448 9.32909 5.02227C9.48227 5.47086 9.65186 5.62404 10.4287 6.0234C10.8499 6.23675 11.1727 6.43916 11.2329 6.52669C11.386 6.72911 11.4189 7.16129 11.304 7.38558C11.2493 7.47858 10.8226 7.96 10.3466 8.44688C9.80504 9.00488 9.44397 9.42612 9.36739 9.58477C8.96803 10.4108 8.99538 11.8441 9.4385 13.5455C9.61356 14.2129 9.71203 14.3934 9.98557 14.5302C10.5655 14.8147 11.49 14.6451 12.1902 14.1309L12.3653 13.9996V14.191C12.3653 14.6342 12.0589 15.5915 11.5173 16.8224C11.014 17.9822 10.7624 19.1693 10.6858 20.7284L10.653 21.456L10.27 21.7131C9.76127 22.0468 9.65186 22.2 9.66827 22.5447C9.68468 22.9057 9.79409 23.1081 10.2044 23.5294C10.6256 23.9616 10.5873 23.8248 11.0797 26.7023C11.4079 28.6444 11.4353 28.7593 11.572 28.8742L11.7143 29H15.779C19.8108 29 19.8491 29 19.9913 28.8851C20.1664 28.7484 20.1773 28.5131 20.0242 28.1685C19.8764 27.8293 19.7069 27.0853 19.6467 26.5218C19.592 25.9474 19.6522 24.9846 19.7999 24.0983C20.046 22.665 20.1007 22.0085 20.1007 20.63C20.1007 19.4921 20.0789 19.1912 19.9804 18.6441C19.8327 17.8345 19.6467 17.1944 19.302 16.2917C18.8042 14.9843 18.662 14.1418 18.6565 12.5334C18.6565 11.9481 18.6948 10.9634 18.744 10.3452C18.8261 9.32765 18.848 9.21277 18.9574 9.08694C19.1981 8.82435 19.2801 8.58912 19.2747 8.18429C19.2747 7.27617 18.7112 6.57593 17.7593 6.28599C17.4365 6.18752 17.3053 6.17657 16.7473 6.2094C16.3971 6.22581 15.9595 6.25863 15.768 6.27505C15.1225 6.34069 14.6356 6.07263 14.3675 5.51463C14.1378 5.02227 14.1378 4.96757 14.3511 4.55727C14.7559 3.79685 14.7395 3.23338 14.2964 2.35261C13.908 1.57578 13.4375 1.17643 12.7537 1.04513C12.42 0.984955 11.5283 0.984955 10.9976 1.04513ZM12.7099 1.9259C12.8248 1.95325 13.0053 2.0572 13.1093 2.1502C13.3172 2.3362 13.7001 3.04191 13.7603 3.35373C13.8095 3.62179 13.7056 3.97191 13.4539 4.36033C13.2132 4.73233 13.2023 4.80892 13.3281 5.24657C13.5305 5.94134 13.9189 6.53763 14.3621 6.81664C14.8161 7.10658 15.2319 7.19411 15.8938 7.1394C16.1947 7.11752 16.6871 7.09564 16.988 7.09564C17.4475 7.09017 17.5733 7.11205 17.7593 7.21052C18.0493 7.3637 18.3064 7.65911 18.3775 7.9217C18.465 8.22259 18.4541 8.2937 18.2954 8.48517C18.1751 8.62741 18.1149 8.65476 17.9508 8.63835C17.7867 8.62194 17.721 8.57817 17.5405 8.332C17.4201 8.16788 17.267 8.03111 17.1904 8.00923C17.0098 7.96547 16.791 8.08582 16.698 8.28276C16.5065 8.67665 17.2615 9.52459 17.7976 9.52459C17.8797 9.52459 17.9453 9.53006 17.9453 9.53553C17.9453 9.54647 17.907 9.95677 17.8633 10.4546C17.8195 10.9524 17.7812 11.866 17.7812 12.4897C17.7812 14.2129 17.9398 15.1703 18.465 16.5543C18.8589 17.5992 18.9957 18.0588 18.9136 18.0861C18.8753 18.1025 18.6018 18.1846 18.3009 18.2831C17.0317 18.6824 14.2198 19.8039 12.4255 20.6245C11.9605 20.8378 11.572 21.0129 11.5556 21.0129C11.5173 21.0129 11.5939 20.1267 11.6869 19.4538C11.8182 18.5511 11.9933 17.9275 12.3708 17.0631C13.0436 15.5095 13.2023 14.9241 13.2078 14.0214C13.2132 13.3486 13.2132 13.3486 13.35 13.3212C13.6837 13.2446 13.8478 13.1735 13.9244 13.0641C14.1323 12.7632 13.8916 12.3256 13.5524 12.3912C13.0163 12.4897 12.7975 12.4897 12.5677 12.4021C12.0918 12.2216 11.9003 11.8824 11.8456 11.133C11.7963 10.4382 11.7854 10.4054 11.572 10.3124C11.2274 10.1701 11.0086 10.3397 10.9593 10.7938C10.8827 11.5925 11.1672 12.4514 11.665 12.8836L11.9495 13.1297L11.7033 13.3759C11.4298 13.644 10.9922 13.8136 10.6311 13.7807C10.4506 13.7643 10.4232 13.7424 10.4068 13.6166C10.3959 13.5127 10.4287 13.4306 10.5162 13.354C10.5873 13.2938 10.7077 13.1844 10.7952 13.1078C10.9867 12.9383 10.9922 12.6866 10.8062 12.5061C10.653 12.3474 10.5107 12.3365 10.281 12.4568C10.188 12.5006 10.1059 12.5334 10.095 12.5225C10.0348 12.4623 9.94727 11.2807 9.97462 10.8704C10.0239 10.0443 10.0786 9.94583 11.0195 8.99394C11.4845 8.52894 11.9276 8.02564 12.037 7.85058C12.2176 7.5497 12.2285 7.50046 12.234 7.04093V6.55405L12.4856 6.4884C12.6224 6.45557 12.8029 6.38446 12.8795 6.33522C13.1366 6.16563 13.1366 5.77175 12.8795 5.60216C12.7482 5.51463 12.7154 5.51463 12.3926 5.60216C11.9605 5.71704 11.7088 5.66233 10.8609 5.24657C10.1004 4.88004 10.095 4.87457 10.095 3.91721C10.095 2.86138 10.2864 2.16661 10.5983 2.03531C10.9812 1.88214 12.2996 1.81102 12.7099 1.9259ZM19.1926 19.5468C19.1762 19.5851 18.9847 19.6781 18.7659 19.7492C17.9398 20.0118 15.9321 20.9965 15.6641 21.2645C15.4835 21.4451 15.4945 21.735 15.6805 21.8827C15.7625 21.9484 15.872 21.9976 15.9212 21.9976C15.9759 21.9976 16.5448 21.7295 17.1849 21.4068C18.1696 20.909 19.0668 20.5205 19.2364 20.5205C19.2856 20.5205 19.2254 21.839 19.1489 22.4954C19.0832 23.0425 18.8206 24.7822 18.7878 24.8916C18.7769 24.9353 18.755 24.9572 18.744 24.9463C18.7221 24.9244 18.4705 23.7318 18.4103 23.3434C18.372 23.0972 18.1696 22.8729 17.9836 22.8729C17.8031 22.8729 17.5843 23.0589 17.546 23.234C17.5186 23.3871 17.7429 24.5962 17.9398 25.3675C18.0985 25.9802 18.4541 26.9978 18.7112 27.5722C18.8316 27.8402 18.93 28.07 18.93 28.0919C18.93 28.1083 17.7484 28.1247 16.3041 28.1247H13.6782V27.233C13.6782 26.2155 13.7494 25.4988 13.9025 25.0502C13.9572 24.8752 14.0065 24.6727 14.0065 24.5962C14.0065 24.4156 13.7767 24.1859 13.6016 24.1859C13.0929 24.1859 12.8029 25.2472 12.8029 27.1236V28.1247H12.5021C12.3379 28.1247 12.2012 28.1083 12.2012 28.0919C12.2012 28.0098 11.8018 25.6903 11.6541 24.9244C11.5666 24.4539 11.49 24.0491 11.49 24.0272C11.49 23.9999 11.6213 23.967 11.7799 23.9451C12.3926 23.874 13.7767 23.3215 13.8916 23.1027C14.0393 22.8291 13.8424 22.4353 13.5634 22.4353C13.5032 22.4353 13.1968 22.5447 12.8905 22.676C12.5896 22.8073 12.1902 22.9604 12.0097 23.0097C11.6541 23.1136 11.1782 23.1355 11.0414 23.0589C10.8937 22.9768 10.56 22.6541 10.56 22.5994C10.56 22.2985 16.6925 19.6507 18.7933 19.0435L19.1215 18.9505L19.1707 19.2131C19.1981 19.3553 19.2036 19.5085 19.1926 19.5468Z" stroke="#717171" stroke-width="0.2" mask="url(#path-1-outside-1_280_9)"/>
<path d="M17.4708 11.6957C17.5269 11.8052 17.5577 11.8998 17.5513 11.9932C17.5448 12.0875 17.5012 12.1723 17.427 12.2637C17.3448 12.3692 17.1856 12.4932 17.0136 12.6005C16.8406 12.7085 16.6476 12.8039 16.494 12.8494L16.494 12.8494L16.4935 12.8496C16.217 12.9286 15.7224 12.9448 15.3884 12.8891L15.3883 12.8891C15.1468 12.8484 14.9733 12.7088 14.9043 12.5363C14.8346 12.362 14.875 12.1618 15.0465 12.0143C15.1131 11.956 15.1665 11.9169 15.2394 11.9019C15.3091 11.8874 15.3918 11.8961 15.5134 11.915C15.7546 11.9498 15.9965 11.9443 16.1903 11.9085C16.2873 11.8906 16.3707 11.8653 16.4355 11.8347C16.5011 11.8036 16.5427 11.7693 16.5628 11.7362L16.5628 11.7361L16.564 11.7343C16.5729 11.7209 16.5865 11.707 16.6005 11.6942C16.6153 11.6807 16.6332 11.6659 16.6531 11.6506C16.6929 11.62 16.7423 11.5862 16.7929 11.5553L16.793 11.5552C16.9371 11.4676 17.0707 11.4278 17.1896 11.4511C17.311 11.4749 17.4036 11.5615 17.4708 11.6957ZM17.4708 11.6957C17.4708 11.6957 17.4707 11.6956 17.4707 11.6955L17.4262 11.7183M17.4708 11.6957C17.4708 11.6958 17.4709 11.6959 17.4709 11.696L17.4262 11.7183M17.4262 11.7183C17.3004 11.4667 17.098 11.4284 16.819 11.598L16.4798 12.8015C16.7752 12.714 17.2347 12.4295 17.3879 12.2326C17.5301 12.0575 17.5356 11.9317 17.4262 11.7183ZM15.0793 12.052C14.7675 12.3201 14.9425 12.7632 15.3966 12.8398L15.506 11.9645C15.2598 11.9262 15.2106 11.9371 15.0793 12.052Z" fill="#717171" stroke="#717171" stroke-width="0.1"/>
</svg>
